<svg width="48" height="52" viewBox="0 0 48 52" fill="none" xmlns="http://www.w3.org/2000/svg">
<path d="M5.34375 20.0938L6.28125 21.6875C7.03125 23 8.34375 24.0312 9.84375 24.5L15.2812 26C16.875 26.4688 18 27.9688 18 29.6562V33.4062C18 34.4375 18.5625 35.375 19.5 35.75C20.3438 36.2188 21 37.1562 21 38.1875V41.8438C21 43.3438 22.3125 44.375 23.7188 44C25.3125 43.5312 26.4375 42.3125 26.8125 40.8125L27.0938 39.7812C27.4688 38.1875 28.5 36.875 29.9062 36.0312L30.6562 35.5625C32.0625 34.8125 33 33.3125 33 31.7188V30.875C33 29.75 32.4375 28.5312 31.5938 27.6875L31.3125 27.4062C30.4688 26.5625 29.25 26 28.125 26H24.0938C22.9688 26 21.9375 25.8125 21.0938 25.25L17.8125 23.375C17.4375 23.1875 17.1562 22.8125 16.9688 22.3438C16.6875 21.5 17.0625 20.4688 17.9062 20.0938L18.4688 19.8125C19.125 19.4375 19.7812 19.4375 20.4375 19.625L22.6875 20.375C23.4375 20.6562 24.2812 20.2812 24.75 19.625C25.125 18.9688 25.125 18.125 24.5625 17.5625L23.3438 15.9688C22.4062 14.8438 22.4062 13.25 23.3438 12.125L24.8438 10.4375C25.6875 9.40625 25.7812 8.09375 25.125 6.96875L24.9375 6.59375C24.5625 6.59375 24.2812 6.5 23.9062 6.5C15.2812 6.5 7.875 12.2188 5.34375 20.0938ZM43.5 26C43.5 22.625 42.5625 19.3438 40.9688 16.5312L38.625 17.4688C37.125 18.125 36.375 19.7188 36.8438 21.2188L38.4375 26C38.7188 26.9375 39.5625 27.6875 40.5938 27.9688L43.3125 28.625C43.4062 27.7812 43.4062 26.9375 43.4062 26H43.5ZM0 26C0 17.4688 4.5 9.59375 12 5.28125C19.4062 0.96875 28.5 0.96875 36 5.28125C43.4062 9.59375 48 17.4688 48 26C48 34.625 43.4062 42.5 36 46.8125C28.5 51.125 19.4062 51.125 12 46.8125C4.5 42.5 0 34.625 0 26Z" fill="#1F8743"/>
</svg>
