<svg width="60" height="43" viewBox="0 0 60 43" fill="none" xmlns="http://www.w3.org/2000/svg">
<path d="M6.75 6.25C6.75 4.375 7.6875 2.6875 9.375 1.75C10.9688 0.8125 12.9375 0.8125 14.625 1.75C16.2188 2.6875 17.25 4.375 17.25 6.25C17.25 8.21875 16.2188 9.90625 14.625 10.8438C12.9375 11.7812 10.9688 11.7812 9.375 10.8438C7.6875 9.90625 6.75 8.21875 6.75 6.25ZM6 21.0625C5.0625 22.0938 4.5 23.5 4.5 25C4.5 26.5938 5.0625 28 6 29.0312V21.0625ZM19.5 16.4688C16.6875 18.9062 15 22.5625 15 26.5C15 29.7812 16.125 32.6875 18 35.0312V37C18 38.6875 16.5938 40 15 40H9C7.3125 40 6 38.6875 6 37V34.5625C2.4375 32.875 0 29.2188 0 25C0 19.2812 4.6875 14.5 10.5 14.5H13.5C15.75 14.5 17.8125 15.25 19.5 16.4688ZM42 37V35.0312C43.875 32.6875 45 29.7812 45 26.5C45 22.5625 43.2188 18.9062 40.4062 16.4688C42.0938 15.25 44.25 14.5 46.5 14.5H49.5C55.2188 14.5 60 19.2812 60 25C60 29.2188 57.4688 32.875 54 34.5625V37C54 38.6875 52.5938 40 51 40H45C43.3125 40 42 38.6875 42 37ZM42.75 6.25C42.75 4.375 43.6875 2.6875 45.375 1.75C46.9688 0.8125 48.9375 0.8125 50.625 1.75C52.2188 2.6875 53.25 4.375 53.25 6.25C53.25 8.21875 52.2188 9.90625 50.625 10.8438C48.9375 11.7812 46.9688 11.7812 45.375 10.8438C43.6875 9.90625 42.75 8.21875 42.75 6.25ZM54 21.0625V29.0312C54.9375 28 55.5 26.5938 55.5 25.0938C55.5 23.5 54.9375 22.0938 54 21.0625ZM30 1C32.0625 1 34.0312 2.21875 35.1562 4C36.1875 5.875 36.1875 8.21875 35.1562 10C34.0312 11.875 32.0625 13 30 13C27.8438 13 25.875 11.875 24.75 10C23.7188 8.21875 23.7188 5.875 24.75 4C25.875 2.21875 27.8438 1 30 1ZM22.5 26.5C22.5 28.0938 23.0625 29.4062 24 30.5312V22.5625C23.0625 23.5938 22.5 25 22.5 26.5ZM36 22.5625V30.5312C36.9375 29.5 37.5 28.0938 37.5 26.5938C37.5 25 36.9375 23.5938 36 22.5625ZM42 26.5C42 30.7188 39.4688 34.375 36 36.0625V40C36 41.6875 34.5938 43 33 43H27C25.3125 43 24 41.6875 24 40V36.0625C20.4375 34.375 18 30.7188 18 26.5C18 20.7812 22.6875 16 28.5 16H31.5C37.2188 16 42 20.7812 42 26.5Z" fill="#1F8743"/>
</svg>
