<svg width="62" height="50" viewBox="0 0 62 50" fill="none" xmlns="http://www.w3.org/2000/svg">
<path d="M48.3438 4.84375H48.25L40 13.0938C39.1562 14.0312 37.75 14.0312 36.9062 13.0938C35.9688 12.25 35.9688 10.8438 36.9062 9.90625L45.1562 1.75C46 0.8125 47.4062 0.8125 48.3438 1.75C49.1875 2.59375 49.1875 4 48.3438 4.84375ZM29.5938 3.625L30.625 4.65625C31.0938 5.125 31.4688 5.5 31.8438 5.96875L36.1562 1.75C37 0.8125 38.4062 0.8125 39.3438 1.75C40.1875 2.59375 40.1875 4 39.3438 4.84375L33.8125 10.375C34.375 12.3438 34.2812 14.5 33.7188 16.4688C35.5938 15.9062 37.6562 15.9062 39.5312 16.2812L45.1562 10.75C46 9.8125 47.4062 9.8125 48.3438 10.75C49.1875 11.5938 49.1875 13 48.3438 13.8438L43.9375 18.25C44.4062 18.5312 44.7812 18.8125 45.1562 19.1875C40.9375 19.75 37.1875 22 34.6562 25.1875C33.9062 24.8125 33.3438 24.3438 32.7812 23.7812L31.6562 22.6562L28.6562 25.5625C30.25 25.75 31.8438 26.2188 33.3438 27.0625C31.8438 29.5 31 32.4062 31 35.5938C31 35.6875 31 35.7812 31 35.875C28.1875 36.25 25.375 35.4062 23.2188 33.3438L22.0938 32.125L19.0938 35.125C21.8125 35.4062 24.3438 36.5312 26.4062 38.5938L27.4375 39.7188C28.0938 40.2812 28.0938 41.2188 27.4375 41.7812L26.4062 42.8125C22.9375 46.375 17.2188 46.375 13.6562 42.8125L12.5312 41.6875L6.0625 48.1562C4.9375 49.375 2.96875 49.375 1.84375 48.1562C0.625 47.0312 0.625 45.0625 1.84375 43.9375L8.3125 37.4688L7.28125 36.5312C3.8125 32.9688 3.8125 27.25 7.28125 23.7812L8.40625 22.6562C8.96875 22.0938 9.90625 22.0938 10.4688 22.6562L11.5938 23.7812C13.5625 25.75 14.6875 28.1875 14.9688 30.8125L17.875 27.9062L16.8438 26.9688C13.375 23.4062 13.375 17.6875 16.8438 14.2188L17.9688 13.1875C18.5312 12.5312 19.4688 12.5312 20.0312 13.1875L21.0625 14.2188C23.0312 16.1875 24.25 18.625 24.5312 21.25L27.3438 18.3438L26.4062 17.4062C22.9375 13.8438 22.9375 8.21875 26.4062 4.65625L27.4375 3.625C28.0938 3.0625 29.0312 3.0625 29.5938 3.625ZM47.5 49C42.625 49 38.2188 46.4688 35.7812 42.25C33.3438 38.125 33.3438 32.9688 35.7812 28.75C38.2188 24.625 42.625 22 47.5 22C52.2812 22 56.6875 24.625 59.125 28.75C61.5625 32.9688 61.5625 38.125 59.125 42.25C56.6875 46.4688 52.2812 49 47.5 49ZM47.5 40C46.1875 40 45.25 41.0312 45.25 42.25C45.25 43.5625 46.1875 44.5 47.5 44.5C48.7188 44.5 49.75 43.5625 49.75 42.25C49.75 41.0312 48.7188 40 47.5 40ZM47.5 26.5C46.6562 26.5 46 27.25 46 28V35.5C46 36.3438 46.6562 37 47.5 37C48.25 37 49 36.3438 49 35.5V28C49 27.25 48.25 26.5 47.5 26.5Z" fill="#1F8743"/>
</svg>
