<svg width="424" height="215" viewBox="0 0 424 215" fill="none" xmlns="http://www.w3.org/2000/svg">
<path opacity="0.2" d="M9.63223 208.079C9.15055 208.893 9.2431 209.781 9.33388 210.654C9.47843 212.045 9.18228 212.77 7.68303 211.848C7.0405 211.452 6.34596 211.001 5.70078 211.691C4.97099 212.47 5.41345 213.163 6.0908 213.751C6.3865 214.007 6.5998 214.34 6.37989 214.706C6.16131 215.071 5.74749 215.036 5.39273 214.921C3.99749 214.472 2.60489 214.013 1.21978 213.534C0.701524 213.355 0.332221 213.013 0.359103 212.4C0.385104 211.801 0.772917 211.468 1.27663 211.286C2.30478 210.915 3.34834 210.586 5.1032 210C2.33122 209.772 2.44095 207.076 0.378053 206.558C-0.401539 206.362 0.163434 205.566 0.824037 205.434C1.59217 205.28 2.38983 205.271 3.44221 205.176C1.88523 203.396 1.29999 201.735 3.62466 199.984C2.53746 199.89 1.71028 199.826 0.884853 199.743C0.503651 199.704 0.130822 199.555 0.0620738 199.145C-0.00755619 198.73 0.347204 198.575 0.653047 198.345C2.17609 197.195 3.94152 196.177 2.27745 193.768C1.64153 192.847 2.05358 191.723 3.16546 191.186C4.094 190.738 4.72288 191.064 4.87976 192.145C4.89387 192.243 4.92163 192.96 5.19398 192.352C5.7638 191.078 7.12158 190.592 7.69493 189.195C10.9979 181.144 11.2668 172.775 10.6181 164.302C10.0363 156.703 8.92844 149.134 8.85616 141.51C8.80593 136.171 9.18316 130.823 11.0777 125.695C14.5896 116.19 22.6112 112.53 32.0654 116.23C34.6087 117.226 34.6254 117.225 34.6025 114.425C34.4778 99.1695 34.3403 83.914 34.2151 68.6584C34.1821 64.6214 34.3271 60.5883 34.9969 56.602C35.9374 51.0055 38.5503 48.7202 44.2546 48.6205C49.903 48.5222 55.5536 48.568 61.2034 48.5676C115.794 48.565 170.384 48.5636 224.974 48.5769C227.024 48.5773 229.102 48.5464 231.117 48.8556C235.052 49.4598 236.726 51.432 236.816 55.4218C236.89 58.7206 236.815 62.0238 236.761 65.3244C236.482 82.4833 236.192 99.6423 235.894 116.801C235.87 118.193 235.765 119.584 235.676 120.973C235.487 123.932 235.677 124.105 238.465 123.3C247.127 120.801 255.189 116.975 262.828 112.23C272.424 106.268 281.07 99.1717 288.455 90.5914C290.314 88.4317 290.287 88.3563 287.551 87.6776C273.858 84.2818 261.731 78.015 251.962 67.7142C243.353 58.6373 238.447 47.8457 238.545 35.1846C238.664 19.7725 249.657 6.31452 264.458 3.14584C274.512 0.993688 282.848 4.57119 289.916 11.3954C299.546 20.6933 304.234 32.3656 305.119 45.5714C306.096 60.1685 302.716 73.6666 294.222 85.727C292.821 87.7164 294.556 87.5603 295.566 87.7085C313.612 90.3532 330.477 87.0381 345.962 77.3579C359.657 68.7965 369.833 56.9217 377.716 42.9509C378.401 41.7367 378.269 40.9323 377.228 40.1328C376.881 39.8664 376.614 39.4964 376.266 39.23C375.352 38.5288 374.587 36.7908 373.694 37.1414C372.523 37.6018 372.732 39.4122 372.508 40.6796C371.872 44.288 371.313 47.91 370.652 51.5136C370.5 52.3392 370.318 53.4439 369.237 53.507C368.018 53.578 367.735 52.4322 367.53 51.5369C366.191 45.6794 366.176 39.7663 366.937 33.8338C367.161 32.0838 368.188 30.9989 369.728 30.1601C382.031 23.4567 394.292 16.6775 406.595 9.97537C410.401 7.90217 413.858 5.32444 417.359 2.72731C392.99 11.0678 369.486 21.3959 346.518 33.1211C348.962 33.9114 351.285 33.1996 353.603 33.0126C357.036 32.7357 360.449 32.2316 363.877 31.8911C364.504 31.8289 365.558 31.3795 365.663 32.4715C365.74 33.2794 364.775 33.3187 364.15 33.3923C358.909 34.0093 353.666 34.6051 348.421 35.1837C347.844 35.2472 347.243 35.2124 346.665 35.1339C345.752 35.0095 344.917 34.6642 344.698 33.653C344.5 32.7348 345.08 32.1165 345.764 31.6446C346.487 31.1458 347.233 30.6642 348.02 30.2783C369.831 19.5749 392.041 9.80206 414.956 1.68167C416.746 1.04705 418.604 0.552233 420.468 0.183987C423.807 -0.476211 424.679 0.614416 423.503 3.87571C422.082 7.81926 420.192 11.5555 418.221 15.2415C412.341 26.2426 406.349 37.1859 398.686 47.0898C394.733 52.1989 393.543 52.381 388.188 48.8856C386.166 47.5661 384.257 46.0622 382.369 44.5517C379.798 42.494 379.816 42.4494 378.202 45.2287C373.461 53.3954 367.822 60.8697 361.032 67.4487C348.43 79.6617 333.617 87.4222 316.078 89.6423C308.821 90.5605 301.581 90.3669 294.389 89.0752C292.74 88.7788 291.668 89.1541 290.571 90.4313C276.262 107.091 258.782 118.953 237.601 125.117C236.005 125.582 235.585 126.369 235.573 127.916C235.447 143.831 235.254 159.747 235.098 175.662C235.079 177.577 235.095 179.493 234.326 181.287C233.872 182.349 234.329 182.698 235.28 182.985C237.046 183.518 238.726 184.317 240.159 185.471C247.7 191.539 255.624 197.135 262.718 203.754C263.2 204.204 263.692 204.651 264.126 205.146C264.726 205.83 265.767 206.402 265.216 207.537C264.734 208.53 263.694 208.602 262.729 208.606C257.74 208.626 252.751 208.596 247.761 208.631C174.097 209.152 100.433 209.065 26.7683 208.996C21.8576 208.992 16.9469 208.996 11.4386 208.996C13.2966 210.29 14.9254 210.564 16.6243 210.571C21.1 210.589 25.5757 210.581 30.0514 210.582C105.48 210.593 180.908 210.608 256.337 210.594C258.713 210.593 261.215 211.069 263.352 209.446C263.667 209.207 264.063 209.179 264.339 209.513C264.605 209.835 264.502 210.198 264.285 210.524C263.711 211.385 262.827 211.797 261.872 211.897C260.272 212.065 258.656 212.157 257.047 212.157C177.51 212.162 97.9729 212.152 18.4356 212.149C16.5983 212.149 14.7412 212.23 12.9895 211.6C11.3104 210.996 9.66793 210.256 9.60755 208.06C10.7948 207.126 12.1944 207.156 13.595 207.172C21.8717 207.269 30.1488 207.438 38.426 207.442C83.8688 207.47 129.311 207.457 174.754 207.454C175.627 207.454 176.519 207.563 177.355 207.18C205.511 207.138 233.668 207.099 261.825 207.045C262.284 207.045 262.878 207.255 263.183 206.477C262.919 206.199 262.636 205.878 262.329 205.582C255.242 198.74 247.161 193.111 239.53 186.933C237.8 185.532 235.779 184.633 233.604 184.15C232.661 183.941 231.662 183.646 230.473 184.346C231.354 185.116 232.046 185.752 232.772 186.348C235.435 188.535 238.121 190.693 240.771 192.896C241.417 193.433 242.397 193.922 242.043 194.988C241.656 196.152 242.451 196.574 243.114 197.12C245.773 199.312 248.445 201.487 251.094 203.689C251.708 204.199 252.444 204.753 252.146 205.689C251.846 206.632 250.927 206.693 250.128 206.682C247.858 206.651 245.589 206.499 243.319 206.476C223.818 206.281 204.317 206.119 184.816 205.905C182.233 205.876 179.694 205.855 177.369 207.197C165.492 207.202 153.616 207.023 141.742 206.979C99.6554 206.822 57.5676 206.588 15.4798 206.87C14.3124 206.878 12.9291 207.136 12.0204 206.62C10.0073 205.476 9.84156 206.649 9.62871 208.077L9.63223 208.079ZM177.102 129.365C176.916 131.662 176.812 133.711 173.794 134.45C152.643 139.625 131.527 144.943 110.415 150.276C108.245 150.824 106.847 150.269 105.973 148.26C105.622 147.453 105.245 146.657 104.928 145.837C99.9432 132.955 96.2987 119.668 92.974 106.284C91.811 101.602 92.3474 100.642 96.8447 99.1585C113.098 93.7989 129.787 90.0939 146.491 86.5512C153.77 85.0077 160.697 81.506 168.772 83.5268C173.532 84.7184 177.469 86.2805 180.486 90.0476C183.588 93.9215 185.651 98.3907 187.649 102.884C190.341 108.938 193.951 114.31 199.171 118.48C207.173 124.873 216.491 126.301 226.365 125.635C227.815 125.537 227.955 124.667 227.975 123.544C228.058 118.779 228.199 114.015 228.26 109.251C228.446 94.6588 228.16 80.0635 228.673 65.473C228.884 59.4465 228.369 59.0051 222.247 58.9976C175.741 58.9411 129.234 58.5469 82.7292 59.2617C70.9221 59.443 59.1109 59.1907 47.3065 59.6882C43.044 59.8681 42.2036 60.5733 42.1891 64.9486C42.1653 71.9894 42.1878 79.0311 42.2755 86.0714C42.4205 97.7301 42.0899 109.392 42.5747 121.048C42.6267 122.298 42.9885 123.281 43.9166 124.153C51.3609 131.154 56.9194 139.395 60.4216 149.035C61.5202 152.06 62.9454 154.985 65.041 157.498C71.3195 165.026 81.3397 164.174 86.3557 155.748C87.2943 154.172 87.1004 153.555 85.2416 153.148C79.851 151.969 75.0152 149.554 70.7638 146.037C67.3793 143.237 65.093 139.716 64.2852 135.348C62.7661 127.134 69.6854 119.785 77.7317 121.237C84.2104 122.406 87.787 126.936 89.8319 132.792C91.7943 138.413 91.6766 144.173 90.3576 149.931C89.7808 152.448 89.7733 152.424 92.4104 152.571C100.693 153.032 108.785 151.636 116.847 150.033C135.339 146.355 153.506 141.324 171.783 136.751C177.529 135.314 177.519 135.277 177.102 129.364L177.102 129.365ZM43.2287 125.786C43.033 125.853 42.8378 125.92 42.6421 125.987C42.6421 127.069 42.6386 128.151 42.6426 129.233C42.695 142.949 42.7554 156.663 42.7959 170.378C42.8043 173.271 42.7717 173.273 45.6829 173.274C81.9941 173.283 118.306 173.292 154.617 173.3C177.431 173.305 200.244 173.314 223.058 173.309C227.28 173.308 227.495 173.058 227.54 168.817C227.656 157.965 227.781 147.113 227.896 136.262C227.921 133.842 227.893 131.421 227.94 129.001C227.965 127.704 227.451 127.074 226.112 127.2C225.456 127.262 224.795 127.282 224.136 127.314C215.159 127.751 206.806 125.907 199.383 120.596C192.631 115.765 188.583 108.959 185.304 101.558C183.279 96.9869 181.039 92.5301 177.374 88.9839C175.427 87.1007 173.18 85.7874 170.46 85.4077C169.254 85.2392 168.612 85.4465 169.215 86.9327C175.071 101.348 177.699 116.465 178.847 131.89C179.117 135.527 178.227 136.75 174.632 137.648C155.429 142.443 136.348 147.737 116.922 151.606C109.366 153.11 101.764 154.719 94.0502 154.231C90.5158 154.006 88.6645 154.818 86.6677 157.783C80.9351 166.296 70.1173 166.414 63.7466 158.381C62.0482 156.24 60.7649 153.859 59.6786 151.359C58.1013 147.729 56.7656 143.989 54.8406 140.517C51.7659 134.97 47.8935 130.058 43.2287 125.786V125.786ZM303.695 50.1336C303.745 47.1877 303.576 44.2615 303.123 41.361C301.277 29.5423 296.467 19.2411 287.407 11.1935C280.939 5.44881 273.434 2.98398 264.831 4.68762C252.802 7.06953 239.824 18.2779 240.129 36.3392C240.344 49.0721 245.765 59.7195 254.848 68.4604C264.546 77.7927 276.231 83.4681 289.27 86.5455C290.914 86.9336 291.787 86.534 292.73 85.2114C300.216 74.7008 303.568 62.9239 303.695 50.1336ZM136.62 50.1213V50.1314C106.765 50.1314 76.9107 50.1257 47.0557 50.135C38.3832 50.1376 36.5248 51.9846 36.1115 60.6404C35.8144 66.8684 35.8338 73.0862 35.959 79.3217C36.1965 91.1254 36.1965 102.936 36.0996 114.742C36.0784 117.342 36.8241 118.998 39.0866 120.235C40.4082 120.958 40.9336 121.003 40.8406 119.343C40.8159 118.904 40.8278 118.463 40.8243 118.023C40.6859 100.645 40.5215 83.2666 40.4232 65.888C40.3884 59.7063 42.1221 58.0481 48.2205 57.9339C57.5324 57.7592 66.8456 57.8064 76.1597 57.6031C96.471 57.1594 116.79 57.4404 137.107 57.1788C153.605 56.9663 170.108 56.9945 186.611 57.3059C199.004 57.5396 211.404 57.4068 223.8 57.4576C228.768 57.4778 230.275 58.9724 230.242 63.9017C230.195 70.7193 230.09 77.5365 229.965 84.3537C229.734 96.9649 229.797 109.581 229.74 122.196C229.737 122.782 229.733 123.37 229.774 123.954C229.812 124.496 229.998 124.916 230.641 125.04C232.561 125.411 234.042 124.232 234.082 122.214C234.225 115.03 234.37 107.847 234.481 100.663C234.684 87.5391 234.862 74.415 235.056 61.2913C235.091 58.9522 235.475 56.6307 235.121 54.2699C234.805 52.153 233.648 51.0571 231.651 50.5464C229.623 50.0274 227.571 50.1319 225.524 50.131C195.89 50.1169 166.255 50.1213 136.62 50.1213ZM236.681 193.896C233.746 191.491 230.763 189.14 227.894 186.659C226.412 185.377 224.834 184.876 222.885 184.877C165.884 184.908 108.883 185.016 51.8831 184.761C44.1123 184.726 41.1226 190.294 36.6434 194.544C103.335 194.131 169.909 194.607 236.682 193.896H236.681ZM7.2463 209.114C8.28723 205.287 10.6665 202.557 13.4888 200.145C19.4523 195.049 25.34 189.858 31.4551 184.95C35.0318 182.08 36.3142 178.177 37.5455 174.108C37.9827 172.664 36.4072 171.993 36.4455 170.73C36.4631 170.148 36.3358 169.564 36.3146 168.979C36.0238 160.925 35.7355 152.87 35.4557 144.816C35.1785 136.835 34.9114 128.853 34.6413 120.872C34.6135 120.056 34.595 119.255 33.7661 118.757C28.7889 115.769 20.0199 114.871 15.3873 121.034C12.8828 124.365 11.6524 128.154 11.0755 132.184C9.82702 140.904 10.7767 149.587 11.7128 158.256C13.026 170.421 13.1371 182.42 7.48736 193.753C6.903 194.925 6.33362 196.139 7.14626 197.503C7.47238 198.05 7.27803 198.762 6.78886 199.105C5.61661 199.926 5.65186 200.73 6.44688 201.805C6.69896 202.146 6.74391 202.901 6.53766 203.276C5.34999 205.431 7.61428 207.076 7.24586 209.113L7.2463 209.114ZM35.3592 183.435C37.2044 182.285 39.087 181.943 41.1363 181.945C104.01 181.981 166.884 181.984 229.757 182.034C231.824 182.036 232.963 181.29 233.233 179.262C233.359 178.32 233.527 177.371 233.526 176.425C233.514 160.583 233.703 144.743 234.028 128.904C234.088 125.954 233.923 125.94 231.111 126.601C229.35 127.014 229.493 128.222 229.487 129.465C229.423 142.007 229.37 154.55 229.304 167.093C229.265 174.357 228.524 175.076 221.162 175.074C167.093 175.059 113.023 175.044 58.9527 175.03C52.9368 175.028 46.9209 175.023 40.9049 175.043C39.8252 175.046 38.5485 174.885 38.3453 176.443C38.0047 179.056 36.9113 181.322 35.3587 183.434L35.3592 183.435ZM249.251 204.941C249.33 204.764 249.41 204.585 249.489 204.408C246.906 202.275 244.274 200.199 241.759 197.989C240.295 196.704 238.75 196.182 236.784 196.184C172.374 196.267 107.964 196.299 43.5544 196.348C41.5056 196.35 39.4555 196.509 37.4084 196.471C36.397 196.452 35.2688 196.293 34.8771 195.097C34.5276 194.031 35.2186 193.264 35.8995 192.595C38.4101 190.129 40.9521 187.694 43.4825 185.247C44.4239 184.337 45.5485 183.785 46.3378 183.726C40.0914 181.962 35.0732 185.098 30.3881 189.389C25.6295 193.747 20.7347 197.956 15.9161 202.249C14.9691 203.092 13.8929 203.84 12.9956 205.328C14.1758 205.328 14.9633 205.345 15.75 205.325C19.781 205.22 23.8116 205.003 27.8422 205.012C49.6272 205.067 71.4121 205.162 93.1966 205.295C94.8104 205.304 95.5741 204.989 96.0563 203.21C97.7001 197.149 97.9336 197.088 104.177 197.07C104.324 197.07 104.471 197.069 104.618 197.069C126.185 197.069 147.753 197.068 169.321 197.077C170.345 197.078 171.375 197.266 172.393 197.207C175.215 197.041 177.041 198.302 177.811 200.968C178.591 203.674 180.402 204.613 183.047 204.356C183.337 204.328 183.634 204.365 183.927 204.367C204.978 204.559 226.029 204.75 247.079 204.94C247.803 204.947 248.527 204.941 249.251 204.941ZM164.633 86.1803C163.949 85.7301 163.53 85.9462 163.109 86.0357C141.732 90.5847 120.517 95.7927 99.4897 101.752C98.2981 102.089 96.4282 101.921 96.1986 103.432C95.9677 104.952 97.6397 105.716 98.7696 106.432C110.011 113.552 122.219 118.456 134.963 122.137C136.868 122.687 138.176 122.086 139.422 120.712C142.386 117.444 145.036 113.934 147.582 110.344C153.261 102.339 158.902 94.3078 164.634 86.1799L164.633 86.1803ZM422.152 2.99545C404.909 12.0261 390.811 24.475 374.867 34.6497C377.734 36.2532 380.121 37.6887 380.636 40.8349C380.695 41.1965 381.158 41.5198 381.483 41.8051C383.907 43.9339 386.423 45.9511 389.136 47.6997C393.311 50.3912 394.032 50.2933 397.167 46.512C398.473 44.9363 399.688 43.275 400.839 41.5815C406.362 33.4563 411.287 24.9734 415.89 16.2969C418.081 12.1654 420.242 8.02565 422.153 2.99501L422.152 2.99545ZM175.406 128.742C174.182 115.844 171.319 102.62 167.335 89.6264C167.097 88.8498 167.117 87.626 166.065 87.5453C165.228 87.4809 164.883 88.538 164.428 89.1757C158.219 97.8937 152.052 106.641 145.82 115.343C143.696 118.308 143.655 118.186 147.099 119.502C155.873 122.857 164.284 127.029 172.742 131.089C175.098 132.219 175.501 131.975 175.406 128.742ZM171.559 133.315C163.312 130.493 155.902 127.52 148.73 123.983C146.837 123.049 144.764 122.242 143.468 120.488C142.712 119.464 142.276 119.594 141.726 120.46C139.393 124.131 136.187 124.648 132.39 123.103C131.009 122.541 129.974 122.371 129.588 124.372C129.378 125.46 128.547 126.456 127.893 127.424C123.993 133.21 119.53 138.559 115.085 143.924C114.014 145.216 112.697 146.342 111.725 148.29C131.734 143.283 151.328 138.379 171.559 133.315L171.559 133.315ZM94.2745 104.932C94.8642 107.298 95.4177 109.63 96.0276 111.948C99.1041 123.634 102.378 135.261 106.877 146.5C107.131 147.136 107.222 148.111 108.096 148.142C108.836 148.168 108.988 147.269 109.33 146.735C114.988 137.91 121.35 129.634 128.536 122.01C116.68 117.348 104.526 113.211 94.2741 104.932L94.2745 104.932ZM89.6168 142.23C89.6168 141.278 89.705 140.317 89.6027 139.377C88.9474 133.352 87.1507 127.876 81.7314 124.382C78.335 122.192 74.6561 121.931 71.0838 123.835C67.4141 125.792 65.6275 129.068 65.6826 133.222C65.7337 137.064 67.3401 140.329 69.9419 143.07C74.4291 147.797 80.0815 150.395 86.3495 151.846C87.6729 152.153 88.2749 151.643 88.5909 150.469C89.3171 147.77 89.8063 145.042 89.6168 142.23ZM137.375 204.128C147.121 204.128 156.868 204.129 166.615 204.128C169.619 204.128 172.625 204.073 175.628 204.141C177.349 204.18 177.301 203.628 176.786 202.197C175.756 199.34 173.786 198.775 171 198.785C148.136 198.869 125.271 198.834 102.406 198.84C101.674 198.84 100.933 198.834 100.213 198.942C99.1967 199.094 97.5454 201.817 97.7578 203.194C97.9997 204.761 99.365 204.09 100.22 204.093C112.605 204.14 124.99 204.125 137.375 204.129V204.128ZM36.4398 120.617C36.3768 120.818 36.2556 121.017 36.2613 121.213C36.5257 130.579 36.7734 139.945 37.0841 149.309C37.3005 155.819 37.5913 162.328 37.88 168.835C37.9514 170.444 37.9589 172.589 40.0605 172.49C42.0419 172.396 41.2152 170.276 41.2094 169.057C41.1433 154.852 40.9935 140.647 40.8675 126.442C40.8388 123.198 39.8574 121.894 36.4398 120.617ZM395.258 18.5359C395.149 18.3882 395.04 18.24 394.931 18.0922C386.661 22.6422 378.392 27.1912 370.124 31.7429C369.312 32.1901 368.75 32.8543 368.586 33.776C367.589 39.3817 367.919 44.9517 368.91 50.7528C369.566 49.8911 369.542 49.1422 369.662 48.4331C370.249 44.9711 370.814 41.5052 371.439 38.0503C371.864 35.7041 373.058 33.9145 375.166 32.6347C377.478 31.2309 379.662 29.6128 381.875 28.0499C386.345 24.8922 390.798 21.709 395.258 18.5363L395.258 18.5359Z" fill="#F6EDE6"/>
</svg>
