<svg width="866" height="651" viewBox="0 0 866 651" fill="none" xmlns="http://www.w3.org/2000/svg">
<path d="M755.06 634.718C754.068 634.881 753.076 635.057 752.097 635.282C737.692 638.602 737.868 638.604 737.805 623.294C737.68 592.872 739.574 562.415 736.462 532.04C736.156 529.052 735.698 526.03 734.865 523.153C731.978 513.179 726.786 509.865 716.794 512.674C699.551 517.521 682.069 520.725 664.263 522.536C627.92 526.229 593.374 518.654 559.616 505.866C576.298 509.003 592.934 512.412 609.67 515.225C654.181 522.708 696.113 513.722 736.446 494.85C741.584 492.445 743.824 488.836 744.088 483.087C744.795 467.745 747.249 452.589 749.791 437.453C750.325 434.265 751.404 431.787 754.228 430.028C763.181 424.45 767.907 416.196 768.997 405.817C771.411 382.823 775.495 359.984 775.443 336.763C775.417 325.431 774.505 314.152 772.867 302.946C772.38 299.614 772.679 294.724 768.164 294.653C763.051 294.571 763.42 299.671 763.045 303.265C758.979 342.323 751.741 380.893 745.471 419.616C744.45 425.922 741.371 428.679 735.686 430.189C703.632 438.7 671.524 437.574 639.325 431.182C632.8 429.888 632.252 426.444 634.22 420.782C640.001 404.14 644.94 387.24 647.894 369.825C648.53 366.079 649.632 361.642 645.141 359.951C640.414 358.172 638.569 362.696 636.885 365.883C633.244 372.769 630.302 380.031 626.55 386.851C620.715 397.457 614.207 400.384 602.164 398.527C590.479 396.725 578.883 394.47 567.543 391.076C565.716 390.528 562.99 390.031 563.017 387.757C563.047 385.218 565.914 385.504 567.743 385.038C571.15 384.168 574.637 383.602 578.019 382.652C580.743 381.887 583.333 380.583 583.634 377.295C583.895 374.423 581.965 372.592 579.793 371.246C575.351 368.493 570.789 365.934 565.574 362.883C570.851 359.206 576.344 361.186 581.187 359.945C584.027 359.217 587.666 359.686 588.704 356.045C589.883 351.904 586.298 350.385 583.688 348.576C579.142 345.427 574.447 342.491 569.896 339.348C568.508 338.389 566.734 337.29 567.353 335.181C567.856 333.466 569.704 333.483 571.126 333.166C573.083 332.731 575.072 332.392 577.064 332.167C590.013 330.7 594.65 326.157 595.966 313.11C596.727 305.564 597.648 298.075 601.063 291.199C602.097 289.117 602.973 285.564 606.006 286.625C608.626 287.542 606.945 290.613 606.613 292.697C604.499 305.947 603.235 319.101 607.475 332.273C613.446 350.816 625.175 358.689 644.516 356.718C652.263 355.929 660.034 355.354 667.774 354.504C672.618 353.973 675.748 355.551 677.985 360.15C681.388 367.15 686.78 372.428 694.325 374.967C698.504 376.372 702.984 376.976 706.113 372.963C709.365 368.794 707.197 364.77 704.568 361.241C699.936 355.027 693.964 350.471 686.431 348.38C682.368 347.251 679.805 345.215 679.219 340.82C675.916 316.081 676.076 291.568 684.961 267.865C691.755 249.742 704.258 236.985 722.444 229.858C727.854 227.738 731.791 228.026 735.275 233.334C739.128 239.204 743.7 244.61 748.037 250.155C751.182 254.174 755.115 257.335 759.671 259.575C763.438 261.425 767.49 262.071 771.124 259.342C774.747 256.62 775.149 252.637 774.57 248.426C772.858 235.963 762.097 223.481 748.243 221.671C736.787 220.173 728.257 215.247 720.07 207.876C714.29 202.672 707.143 199.211 700.199 195.641C697.938 194.478 695.994 193.359 696.125 190.072C696.791 173.322 686.595 164.376 670.079 166.976C659.954 168.57 658.665 167.721 656.909 157.36C656.367 154.161 656.456 150.849 656.338 147.585C656.13 141.817 658.611 138.417 664.376 136.536C676.89 132.45 686.882 117.832 686.798 104.747C686.733 94.9089 680.911 89.2747 671.064 89.789C661.891 90.2684 654.875 94.7486 649.604 102.103C648.288 103.937 647.288 105.997 646.011 107.861C643.815 111.064 641.175 114.212 636.901 113.333C632.161 112.359 631.275 108.13 630.776 103.983C630.356 100.486 629.965 96.9872 629.5 93.4962C627.505 78.5205 620.701 72.3569 605.514 71.95C596.471 71.708 587.379 72.1784 578.389 71.401C569.321 70.616 568.78 68.5634 572.204 60.3473C580.299 40.9262 595.674 32.217 615.631 30.2915C625.922 29.2993 636.225 29.871 646.402 31.9931C670.277 36.9724 683.744 53.1113 684.667 77.6054C684.797 81.0434 682.871 86.4704 687.973 87.0921C693.078 87.7138 692.563 82.022 693.436 78.6854C703.57 39.94 681.954 16.4986 651.555 5.29973C637.118 -0.0183742 622.048 -0.903213 606.914 1.07066C583.04 4.18348 559.752 26.4633 555.234 50.0892C554.324 54.8507 553.898 59.8981 556.412 64.1196C559.874 69.9323 559.093 75.4727 557.447 81.4806C547.941 116.154 555.443 148.752 569.999 180.369C575.912 193.211 587.354 197.744 602.07 199.396C592.353 203.96 584.297 207.037 574.811 204.107C563.488 200.61 553.523 204.166 544.664 211.494C530.396 223.292 519.217 237.453 513.839 255.322C503.289 290.369 487.733 323.405 473.958 357.161C472.254 361.336 470.741 362.694 466.311 360.448C452.138 353.262 437.105 348.174 421.928 343.645C415.992 341.874 414.564 339.444 416.22 333.38C419.823 320.202 425.936 308.641 435.285 298.717C452.002 280.97 470.407 264.798 485.152 245.209C486.729 243.114 488.816 242.022 491.513 241.641C501.614 240.21 517.521 221.821 517.395 211.924C517.32 205.96 510.217 197.919 502.715 195.148C495.661 192.542 489.835 194.18 485.359 200.161C481.893 204.791 478.704 209.626 475.291 214.296C471.512 219.462 470.256 224.62 474.578 230.161C477.027 233.301 476.004 236.088 473.671 238.971C466.636 247.667 458.247 254.942 449.112 261.16C424.92 277.624 408.184 299.586 399.177 327.36C396.973 334.154 393.827 334.814 388.29 331.022C372.543 320.237 362.934 304.681 355.061 287.944C351.329 280.011 349.05 271.403 345.753 263.248C343.903 258.671 342.078 252.876 335.802 253.511C329.904 254.109 328.472 259.76 326.974 264.592C324.761 271.728 325.154 279.025 326.112 286.293C327.578 297.424 326.447 298.382 315.555 294.648C306.046 291.388 296.704 287.609 286.835 285.48C284.624 285.004 282.444 284.342 280.214 283.998C270.611 282.522 260.492 280.79 254.502 290.96C248.742 300.741 252.774 309.925 258.589 318.363C263.779 325.896 271.431 330.281 279.526 333.909C302.24 344.089 324.941 354.297 347.762 364.23C363.869 371.24 363.506 373.19 375.241 356.975C374.642 366.439 371.726 373.154 366.557 379.074C357.831 389.07 358.19 392.21 369.773 398.353C374.594 400.91 375.358 403.757 373.887 408.668C370.786 419.025 368.072 429.503 365.452 439.994C363.292 448.643 361.886 457.334 369.732 465.228C362.451 466.481 356.25 465.786 350.083 465.423C319.735 463.637 289.402 461.565 259.044 459.977C218.391 457.85 177.723 456.015 137.057 454.191C127.779 453.775 118.464 453.296 109.219 455.002C99.8976 456.723 97.0492 459.676 97.4449 469.252C98.555 496.134 100.684 522.958 101.45 549.872C102.118 573.321 100.428 596.603 98.9099 619.93C98.638 624.107 96.6535 625.396 92.4277 624.865C76.9154 622.919 61.4137 620.849 45.8395 619.455C38.0494 618.756 30.2427 618.224 22.4239 617.964C18.5243 617.833 14.6232 617.771 10.7221 617.79C8.19084 617.802 3.51194 617.068 1.34919 618.668C-0.0840818 619.729 -0.413327 621.961 0.544202 623.466C3.58745 628.255 18.5394 625.165 23.4297 625.402C31.0432 625.773 38.649 626.319 46.2413 626.992C61.2038 628.317 76.118 630.136 91.011 632.08C96.1808 632.755 96.9389 634.695 96.439 639.387C95.5253 647.965 97.9795 650.609 106.421 650.364C125.826 649.801 145.013 647.496 163.671 641.822C165.827 641.167 167.943 640.319 169.978 639.352C171.836 638.472 173.534 637.197 173.345 634.818C173.121 632.013 170.924 631.076 168.622 630.788C165.89 630.448 163.102 630.388 160.344 630.457C144.214 630.864 128.226 629.241 112.222 627.499C106.821 626.91 105.418 624.405 105.955 619.547C111.331 571.038 108.678 522.605 104.507 474.189C103.631 464.014 105.217 461.997 115.375 461.783C149.846 461.051 184.183 464.254 218.587 465.51C242.187 466.37 265.766 467.857 289.348 469.188C313.179 470.533 337.002 472.02 360.827 473.461C366.415 473.8 371.994 473.86 376.78 470.421C379.121 468.739 381.453 468.923 383.954 469.397C396.194 471.71 408.421 471.014 420.748 469.881C431.722 468.872 442.829 467.943 453.682 471.343C457.189 472.442 459.335 473.815 458.121 478.3C449.587 509.814 452.35 541.641 455.84 573.469C456.689 581.216 457.415 588.98 458.402 596.709C458.775 599.636 459.116 603.311 463.151 603.28C466.601 603.253 467.244 599.945 467.814 597.269C471.801 578.531 473.284 559.457 475.282 540.456C477.122 522.958 477.942 505.338 481.328 488.028C482.541 481.828 480.733 477.229 475.534 473.72C474.036 472.708 471.053 471.765 472.547 469.376C474.072 466.934 476.755 468.464 478.621 469.571C488.574 475.48 498.147 481.968 507.309 489.055C509.817 490.994 512.102 494.192 515.8 492.802C520.028 491.214 519.032 487.015 519.398 483.651C521.586 463.521 526.644 443.953 533.326 425.019C543.708 395.6 541.572 366.14 536.653 336.369C536.12 333.145 535.892 329.871 535.298 326.661C534.921 324.616 533.953 322.635 531.394 322.933C528.881 323.225 528.281 325.3 528.339 327.419C528.494 333.197 528.943 338.97 528.994 344.748C529.064 352.588 526.747 359.432 520.975 365.187C508.389 377.737 505.965 394.329 503.597 410.851C502.705 417.085 501.726 423.273 499.447 429.198C497.298 434.787 493.493 437.534 487.365 437.449C481.257 437.364 475.368 436.364 469.569 434.58C446.677 427.534 424.708 418.267 403.297 407.549C397.949 404.872 396.71 401.821 398.406 396.22C402.49 382.742 406.206 369.147 409.784 355.523C411.226 350.03 413.452 348.07 419.38 350.167C433.838 355.281 448.437 359.966 462.422 366.362C467.127 368.513 469.474 371.402 468.957 376.817C468.43 382.342 469.83 387.415 475.111 390.431C478.662 392.46 482.346 392.737 485.677 389.972C488.984 387.228 489.604 383.619 488.089 379.73C487.369 377.879 486.588 375.666 485.123 374.556C477.363 368.673 479.312 362.079 482.583 354.652C497.184 321.503 511.229 288.147 522.348 253.59C527.315 238.154 537.431 225.854 550.509 216.153C554.304 213.337 556.751 211.696 558.226 218.768C560.416 229.264 569.272 233.078 578.808 235.034C585.596 236.426 636.386 229.869 642.767 226.921C657.632 220.054 672.157 212.541 685.002 202.25C688.418 199.512 691.32 199.007 695.222 201.099C703.884 205.741 712.438 210.502 719.965 216.896C722.79 219.293 724.033 221.349 719.319 223.283C687.272 236.432 674.99 262.962 671.076 295.076C669.239 310.141 669.161 325.206 671.844 340.17C672.687 344.869 670.928 346.69 666.587 347.133C657.345 348.079 648.18 349.811 638.829 349.556C623.755 349.148 614.509 339.879 612.778 322.858C611.834 313.579 612.23 304.304 613.612 295.02C614.55 288.725 616.531 281.434 608.293 278.083C603.124 275.98 597.489 280.858 593.705 289.499C590.308 297.254 589.21 305.513 588.487 313.741C587.79 321.661 583.549 324.772 576.291 325.152C572.258 325.362 568.252 325.747 564.474 327.301C556.72 330.491 555.4 336.034 561.44 341.767C565.213 345.347 569.674 348.201 574.821 352.144C569.92 353.286 565.894 354.124 561.928 355.182C558.933 355.98 556.035 357.29 555.487 360.767C554.941 364.225 557.214 366.426 559.853 368.081C563.875 370.602 568.014 372.933 573.092 375.928C568.007 377.337 563.698 378.199 559.638 379.73C552.401 382.459 550.799 389.955 557.53 393.375C576.57 403.049 596.935 409.004 618.434 404.072C628.097 401.854 632.09 392.168 636.846 384.076C634.673 395.877 631.151 407.219 627.371 418.509C623.284 430.713 625.439 435.324 638.047 438.207C669.855 445.48 701.784 446.164 733.655 438.234C741.91 436.18 742.553 436.742 741.232 444.931C739.388 456.354 737.411 467.771 737.208 479.371C737.119 484.515 735.04 487.658 730.266 489.818C702.212 502.514 672.991 510.406 642.099 510.633C619.605 510.8 597.713 505.751 575.74 501.513C561.439 498.755 546.99 496.732 532.565 494.674C529.648 494.259 525.287 492.931 524.361 497.467C523.589 501.248 527.519 502.19 530.174 503.314C564.409 517.807 599.637 529.03 637 530.727C662.456 531.883 687.641 528.15 712.278 521.292C725.88 517.506 728.117 518.768 729.385 533.125C731.759 559.968 731.726 586.884 730.613 613.805C730.251 622.59 730.063 631.415 730.465 640.189C730.731 645.97 734.017 649.151 740.185 646.653C760.218 638.542 781.474 638.242 802.506 637.279C823.416 636.32 844.281 636.89 865.123 638.091C865.313 635.748 865.49 633.404 865.673 631.059C828.761 628.911 791.853 628.672 755.051 634.716L755.06 634.718ZM767.575 330.143C768.509 358.636 764.427 384.688 760.49 410.731C759.907 414.587 758.312 418.677 752.71 420.788C757.682 390.471 762.465 361.304 767.575 330.143ZM745.486 228.144C754.458 228.811 766.187 239.821 767.28 249.155C767.165 249.96 767.787 251.66 766.372 252.701C764.367 254.175 762.523 252.85 760.878 251.831C752.748 246.796 748.294 238.445 742.753 231.133C740.569 228.252 743.309 227.981 745.488 228.143L745.486 228.144ZM481.467 218.184C484.049 214.482 486.454 210.643 489.203 207.069C494.599 200.055 498.066 199.424 504.263 203.979C510.131 208.291 510.995 213.021 506.811 219.579C504.387 223.38 501.561 226.922 499.013 230.648C496.979 233.62 494.298 235.051 490.506 234.582C483.765 236.147 483.758 229.423 480.768 226.257C478.023 223.353 479.676 220.754 481.467 218.186V218.184ZM108.731 634.313C120.272 635.972 131.865 637.123 143.455 638.291C132.037 641.226 120.675 642.804 109.116 642.514C106.247 642.441 104.231 641.385 104.324 638.094C104.406 635.235 106.04 633.925 108.731 634.311V634.313ZM373.63 392.469C369.037 390.431 368.037 388.309 371.692 384.18C379.294 375.592 383.607 365.602 382.544 353.875C382.251 350.636 381.5 347.094 377.758 345.999C373.825 344.848 371.851 347.958 369.906 350.547C368.403 352.548 366.989 354.672 365.897 356.916C363.676 361.481 360.534 362.404 356.062 360.184C351.566 357.951 346.966 355.924 342.385 353.866C320.401 343.987 298.346 334.262 276.448 324.194C268.358 320.475 262.558 314.166 260.157 305.416C257.31 295.037 262.496 288.832 273.029 290.248C279.715 291.146 286.37 292.704 292.85 294.61C302.238 297.372 311.385 300.96 320.767 303.744C329.721 306.402 333.77 303.268 333.767 294.058C333.764 287.528 333.216 280.997 333.246 274.468C333.264 270.36 332.887 265.963 337.212 261.414C340.132 269.304 342.538 276.295 345.288 283.148C354.626 306.426 367.022 327.364 389.917 339.976C392.988 341.667 393.28 343.841 392.344 346.89C387.916 361.297 383.577 375.731 379.26 390.173C378.292 393.411 376.635 393.803 373.63 392.469ZM377.049 451.225C376.477 453.429 376.838 457.313 373.5 456.832C370.493 456.398 371.513 452.774 371.162 449.977C372.781 437.36 376.687 424.893 380.367 412.383C381.068 410.001 381.058 405.794 384.909 406.833C388.422 407.78 387.06 411.356 386.41 413.983C383.34 426.41 380.268 438.837 377.049 451.227V451.225ZM474.168 486.253C469.01 515.389 468.486 545.071 463.339 574.142C462.496 565.673 461.401 557.22 460.86 548.731C459.487 527.167 459.232 505.612 464.011 484.362C464.538 482.019 463.86 477.18 468.733 478.546C472.107 479.492 474.985 481.632 474.168 486.253ZM400.402 414.154C413.58 420.947 427.149 426.941 440.979 432.3C454.337 437.478 467.708 442.673 482 444.751C494.837 446.618 502.863 441.808 507.02 429.588C509.619 421.945 510.581 413.927 511.751 405.967C513.784 392.133 516.696 378.637 527.785 368.707C529.147 367.486 529.707 364.425 532.195 365.6C534.238 366.565 533.474 369.197 533.604 371.128C534.493 384.284 533.185 397.205 529.759 409.966C523.379 433.728 515.198 457.048 512.097 483.01C502.214 476.391 493.294 470.407 484.362 464.442C478.668 460.641 472.719 459.547 466.773 463.626C463.493 465.879 460.397 465.785 456.804 464.699C446.079 461.454 435.202 461.016 424.012 462.208C412.328 463.453 400.581 464.879 388.724 462.902C383.772 462.076 382.236 460.309 383.507 455.457C386.821 442.814 389.974 430.127 393.04 417.42C394.143 412.852 395.934 411.849 400.4 414.151L400.402 414.154ZM404.135 348.779C399.846 364.506 395.552 380.234 391.18 395.939C390.785 397.356 389.94 398.874 388.02 398.505C385.859 398.089 385.344 396.509 385.931 392.841C390.233 378.871 395.02 363.289 399.841 347.716C400.308 346.206 401.11 344.787 403.054 345.572C404.479 346.147 404.475 347.528 404.133 348.779H404.135ZM408.296 334.693C408.003 336.14 407.23 338.122 405.49 337.465C402.608 336.376 404.433 333.968 404.966 332.319C413.922 304.654 429.562 282.018 455.407 267.398C454.232 268.659 453.087 269.951 451.877 271.178C433.559 289.743 413.834 307.335 408.294 334.694L408.296 334.693ZM562.044 52.9736C567.016 35.2829 576.593 20.64 593.375 12.6053C620.248 -0.26038 661.404 10.0627 679.82 33.303C685.496 40.4634 688.637 49.4827 687.931 56.9577C676.608 29.8045 653.313 23.2854 627.629 22.5367C598.828 21.6972 575.223 31.1869 564.041 61.6587C561.398 57.9484 561.365 55.3892 562.044 52.9736ZM568.606 222.864C566.802 221.536 565.065 219.676 565.509 217.213C566.022 214.374 568.751 214.648 570.888 214.113C582.805 211.128 590.27 220.11 599.545 225.074C588.831 229.71 578.378 230.059 568.606 222.864ZM594.298 212.709C594.109 212.588 594.02 212.313 593.363 211.334C601.847 207.687 609.921 204.272 617.945 200.743C621.634 199.12 625.224 197.249 627.709 193.891C629.121 191.981 629.98 189.86 628.552 187.613C627.067 185.279 624.812 185.359 622.529 186.17C619.215 187.347 615.984 188.78 612.629 189.811C595.621 195.032 582.343 189.219 574.8 173.346C570.795 164.914 567.838 156.103 565.441 147.098C559.702 125.542 559.104 103.91 564.689 82.2353C565.374 79.5763 565.341 75.4047 570.064 77.0397C581.823 81.113 593.955 79.3645 605.961 79.6746C617.087 79.962 621.403 83.8432 622.447 94.9301C622.942 100.195 623.149 105.495 624.842 110.537C626.528 115.552 629.432 119.551 635.115 120.453C641.022 121.391 646.142 119.771 649.921 115.026C651.628 112.882 652.949 110.406 654.264 107.983C657.507 102.012 662.789 98.8491 669.108 97.3063C676.034 95.6138 681.104 99.8882 679.538 106.705C677.1 117.314 672.741 126.898 660.806 130.051C653.833 131.894 650.505 136.778 649.203 143.451C647.388 152.755 649.717 161.399 653.484 169.801C654.491 172.047 656.29 174.256 654.221 176.765C645.755 187.029 640.441 199.533 630.568 208.869C615.412 223.198 611.673 223.834 594.294 212.71L594.298 212.709ZM676.544 199.733C664.214 208.445 650.954 215.442 637.181 221.491C633.595 223.065 629.82 224.614 624.207 223.711C630.671 218.479 636.472 214.427 640.702 208.832C644.923 203.248 648.784 197.382 652.642 191.535C659.711 180.821 659.656 180.797 670.659 187.952C672.547 189.178 674.403 190.547 676.458 191.408C683.17 194.217 680.888 196.664 676.544 199.733ZM688.896 187.014C686.899 189.543 684.843 187.868 682.962 186.779C679.511 184.781 676.055 182.768 672.766 180.522C671.027 179.336 668.004 178.276 668.93 175.708C669.733 173.478 672.71 173.809 675.282 173.623C680.263 174.256 685.272 175.587 688.728 180.109C690.401 182.299 690.696 184.734 688.897 187.012L688.896 187.014Z" fill="#F6EDE6" fill-opacity="0.2"/>
</svg>
