<svg xmlns="http://www.w3.org/2000/svg" width="544" height="254" viewBox="0 0 544 254" fill="none">
<path opacity="0.2" d="M671.282 225.129C656.896 224.987 642.513 225.04 628.124 224.774C601.733 224.287 575.364 223.503 549.015 221.905C522.1 220.272 495.256 218.007 468.642 213.556C453.655 211.049 438.745 208.13 424.708 202.046C418.471 199.344 412.184 196.525 409.475 189.449C409.166 188.641 408.412 187.995 407.83 187.303C399.231 177.086 390.67 166.835 381.984 156.692C380.233 154.646 380.509 153.566 382.731 152.281C388.32 149.052 393.864 145.742 399.344 142.331C404.47 139.139 405.339 134.62 401.968 129.612C401.526 128.957 400.97 128.376 400.543 127.712C395.341 119.639 387.095 113.547 384.799 103.568C384.636 102.861 383.936 102.256 383.426 101.655C377.197 94.3241 370.994 86.9718 364.714 79.6854C347.94 60.2235 331.03 40.8806 313.197 22.369C306.518 15.4363 299.644 8.69283 291.83 3.01247C286.165 -1.10479 284.041 -1.03541 278.615 3.42875C275.734 5.79857 272.958 8.316 270.3 10.9334C256.736 24.2905 244.307 38.687 231.857 53.059C223.039 63.2389 214.331 73.5126 205.567 83.7394C204.614 84.8516 203.787 85.9827 201.9 85.3781C190.819 81.8288 179.354 80.5432 167.808 79.6725C146.74 78.0849 125.714 78.6978 104.7 80.5656C102.29 80.7799 99.7439 81.7145 99.2355 83.9585C98.2308 88.392 95.6906 92.1161 94.3545 96.3483C94.008 97.4462 94.4239 98.6427 94.2544 99.6956C93.52 104.26 90.1583 107.842 89.2863 112.39C89.272 112.464 89.0958 112.499 89.0046 112.565C82.0694 117.628 81.3935 121.518 86.1975 128.804C97.785 146.378 109.311 163.992 121.037 181.473C122.845 184.166 122.637 185.889 120.644 188.238C112.118 198.287 101.097 204.613 89.1352 209.492C75.6896 214.977 61.5136 218.434 47.1886 220.672C39.8764 221.815 32.5185 222.647 25.1477 223.307C18.1193 223.936 10.7124 223.738 3.78198 225.059C2.4091 225.321 -0.0725646 224.254 0.0016266 226.45C0.0690113 228.428 11.425 226.847 13.2301 226.751C38.0992 225.423 63.0438 222.135 86.495 213.272C99.9651 208.182 112.562 201.629 122.085 190.366C124.74 187.227 124.767 187.24 127.135 190.809C138.775 208.348 150.365 225.921 162.068 243.418C168.513 253.055 176.761 255.909 187.98 252.796C218.975 244.195 249.987 235.65 280.972 227.013C283.426 226.329 285.378 226.453 287.666 227.829C294.775 232.107 305.439 229.746 310.17 223.017C311.264 221.461 312.599 220.848 314.384 220.596C329.857 218.414 345.329 216.215 360.791 213.952C374.685 211.919 388.57 209.828 402.45 207.701C407.156 206.98 411.213 205.165 412.877 200.208C413.459 198.475 414.233 199.264 415.098 199.827C421.916 204.264 429.478 206.973 437.217 209.234C456.203 214.782 475.692 217.67 495.277 219.98C527.015 223.721 558.904 225.417 590.817 226.608C617.652 227.61 644.508 227.695 671.361 227.486C672.693 227.476 675.04 228.129 675 226.248C674.96 224.398 672.618 225.142 671.282 225.128L671.282 225.129ZM404.354 187.169C405.476 188.502 406.606 189.818 405.933 191.702C405.235 193.657 403.466 193.767 401.746 193.939C369.489 197.161 337.595 202.308 306.529 211.845C306.122 211.97 305.689 212.011 304.316 212.272C311.804 204.151 319.24 197.4 326.882 190.88C341.453 178.447 357.002 167.378 373.456 157.547C376.549 155.699 378.303 155.81 380.682 158.783C388.376 168.402 396.423 177.74 404.355 187.17L404.354 187.169ZM407.529 195.532C407.166 197.962 406.657 198.587 403.059 199.017C396.1 199.846 389.119 200.486 382.146 201.201C367.3 202.724 352.496 204.592 337.625 206.624C360.598 200.912 384.222 198.655 407.529 195.532ZM400.333 131.849C402.477 135.18 401.459 138.181 397.789 140.372C387.688 146.401 377.483 152.257 367.422 158.353C349.374 169.291 332.607 181.951 317.079 196.239C316.335 196.923 315.585 197.601 314.839 198.283C326.269 184.443 339.878 173.053 353.572 161.75C363.51 153.546 373.84 145.794 382.864 136.528C386.994 132.287 390.725 127.802 392.368 121.256C395.253 125.047 398.042 128.289 400.333 131.849L400.333 131.849ZM386.524 113.489C390.584 118.679 390.693 122.212 386.537 128.214C382.378 134.219 376.969 139.05 371.455 143.747C355.791 157.092 339.309 169.481 324.496 183.823C320.614 187.581 316.592 191.195 312.988 194.546C319.604 184.277 327.545 174.44 335.859 164.877C347.965 150.952 361.513 138.407 374.056 124.9C377.371 121.331 380.657 117.735 383.154 113.536C384.403 111.436 385.196 111.792 386.524 113.489ZM207.732 85.0155C225.218 64.6741 242.421 44.0858 260.7 24.4354C266.946 17.7205 273.213 11.0198 280.342 5.20476C281.825 3.99536 283.307 2.6989 285.411 2.71522C287.446 2.86282 289.02 4.00012 290.566 5.1449C297.785 10.4872 304.173 16.7675 310.395 23.1811C334.924 48.4656 357.8 75.2226 380.508 102.124C383.639 105.834 383.757 107.846 381.085 112.172C377.612 117.796 373.04 122.544 368.462 127.244C355.508 140.541 342.19 153.488 330.153 167.656C319.125 180.636 309.182 194.351 301.196 209.426C299.451 212.72 299.255 212.751 297.012 209.756C267.155 169.893 237.323 130.012 207.42 90.1844C205.876 88.1281 206.108 86.9051 207.732 85.0169V85.0155ZM105.479 83.0218C112.468 82.4165 119.475 81.941 126.483 81.658C131.798 81.4438 137.127 81.6159 142.451 81.6159C159.576 81.3683 176.618 82.1621 193.467 85.6073C199.451 86.831 203.932 89.313 207.8 94.5533C236.158 132.96 264.909 171.076 293.536 209.284C293.74 209.555 293.972 209.811 294.136 210.105C294.555 210.861 295.683 211.472 295.185 212.421C294.677 213.391 293.542 212.918 292.705 212.785C286.103 211.73 279.461 211.145 272.789 210.716C257.952 209.762 243.136 210.196 228.332 211.224C218.056 211.938 207.847 213.265 197.655 214.807C189.841 215.989 183.837 212.775 179.444 206.202C154.799 169.337 130.097 132.51 105.412 95.6715C104.278 93.9799 103.089 92.3263 101.966 90.6279C99.358 86.6861 100.772 83.4293 105.478 83.0212L105.479 83.0218ZM97.1316 95.5573C97.493 94.2622 97.9878 92.7086 99.4676 92.4923C100.764 92.3025 101.106 93.8663 101.701 94.7533C126.61 131.881 151.591 168.96 176.311 206.212C182.379 215.357 190.162 218.764 200.922 216.941C215.341 214.499 229.92 213.562 244.541 212.991C254.599 212.599 264.602 213.053 274.632 213.416C247.865 214.31 221.816 219.644 195.916 225.92C186.242 228.264 181.817 226.521 176.292 218.348C150.685 180.463 125.081 142.578 99.4172 104.731C97.4787 101.872 96.165 99.0202 97.1309 95.558L97.1316 95.5573ZM93.6888 107.051C94.9562 104.513 96.1092 104.394 97.7305 106.726C100.509 110.72 103.229 114.755 105.953 118.787C128.636 152.351 151.31 185.923 173.998 219.484C180.4 228.954 185.67 230.944 196.855 228.277C202.252 226.99 207.67 225.789 213.077 224.539C238.439 218.676 266.347 215.42 286.157 216.172C266.022 219.881 245.865 223.532 225.825 227.791C213.97 230.311 202.156 232.996 190.479 236.259C182.487 238.492 176.33 236.353 171.859 229.686C146.145 191.341 120.465 152.973 94.7275 114.644C93.0796 112.19 92.3105 109.811 93.6888 107.051ZM261.431 223.911C253.492 226.063 245.537 228.162 237.616 230.379C221.048 235.016 204.503 239.737 187.937 244.38C180.079 246.582 174.885 244.87 170.268 238.147C157.017 218.846 143.919 199.441 130.699 180.119C129.226 177.967 130.194 176.359 131.138 174.521C132.65 174.954 133.01 176.272 133.668 177.251C145.329 194.625 156.958 212.021 168.595 229.41C175.019 239.008 181.256 241.388 192.379 238.355C214.789 232.245 237.572 227.856 260.377 223.564C260.693 223.505 261.028 223.557 261.354 223.557C261.38 223.675 261.405 223.792 261.431 223.911ZM91.1867 115.506C92.5174 114.98 92.8414 116.396 93.3546 117.158C104.851 134.238 116.29 151.356 127.823 168.41C129.406 170.752 129.087 172.749 127.517 175.397C123.972 170.332 120.61 165.564 117.286 160.769C108.907 148.684 100.543 136.588 92.1784 124.492C90.8838 122.62 89.6621 120.687 89.6226 118.321C89.6028 117.15 90.0664 115.948 91.1874 115.506L91.1867 115.506ZM125.064 181.027C123.63 182.007 123.212 180.241 122.674 179.43C113.048 164.926 103.464 150.394 93.8767 135.865C91.6979 132.563 89.5484 129.242 87.3642 125.944C85.8361 123.636 85.5169 121.194 86.6366 118.526C87.1831 121.689 88.9304 124.2 90.6653 126.708C101.983 143.071 113.309 159.428 124.633 175.786C124.955 176.25 125.27 176.72 125.618 177.166C126.776 178.652 126.322 180.167 125.064 181.028L125.064 181.027ZM403.433 204.839C393.509 206.559 383.547 208.081 373.578 209.53C353.974 212.38 334.356 215.139 314.739 217.901C311.807 218.314 309.542 219.349 307.756 222.011C304.312 227.145 294.757 229.175 289.305 225.785C286.041 223.756 283.114 223.76 279.661 224.724C249.236 233.219 218.762 241.541 188.362 250.124C181.133 252.165 174.548 252.138 168.491 247.218C167.152 246.131 166.07 244.849 165.126 243.429C152.672 224.674 140.218 205.919 127.764 187.163C127.576 186.88 127.41 186.583 127.211 186.308C126.006 184.647 126.654 183.009 128 182.176C129.373 181.327 129.727 183.192 130.289 183.995C142.618 201.605 154.74 219.355 166.573 237.302C167.821 239.195 169.116 241.041 170.752 242.632C175.621 247.368 181.221 248.989 187.879 247.053C225.282 236.177 262.839 225.863 300.637 216.44C321.552 211.226 342.879 208.373 364.24 205.81C377.274 204.246 390.345 202.981 403.403 201.622C406.274 201.323 408.522 200.039 410.287 197.705C409.952 202.007 408.18 204.019 403.434 204.841L403.433 204.839ZM336.082 74.3193C335.876 75.3934 335.142 75.9709 334.478 76.5681C311.33 97.3775 291.182 120.927 271.679 145.065C271.254 145.592 270.809 146.108 270.324 146.578C269.904 146.986 269.351 147.263 268.794 146.919C268.063 146.468 268.155 145.781 268.542 145.151C268.955 144.479 269.405 143.821 269.901 143.207C287.99 120.84 306.741 99.0698 327.686 79.2773C329.658 77.4129 331.74 75.6614 333.802 73.8942C334.31 73.4596 334.953 73.0712 335.637 73.5677C335.872 73.7384 335.963 74.1078 336.082 74.3187L336.082 74.3193ZM249.916 124.61C249.608 124.411 249.142 124.263 248.936 123.945C248.595 123.419 248.842 122.832 249.192 122.374C250.358 120.847 251.532 119.326 252.747 117.837C269.69 97.0619 287.207 76.8028 306.612 58.2475C308.818 56.1389 311.107 54.1153 313.41 52.1114C314.212 51.4136 315.257 50.0518 316.251 51.0966C317.531 52.442 315.783 53.28 314.967 54.0078C305.595 62.3777 296.826 71.3421 288.276 80.5405C275.875 93.8813 264.124 107.77 252.694 121.938C251.921 122.897 251.266 123.979 249.917 124.609L249.916 124.61ZM354.845 97.5911C354.657 98.776 353.879 99.2977 353.214 99.8956C331.034 119.854 311.593 142.333 292.786 165.393C291.715 166.706 290.641 168.02 289.527 169.297C288.945 169.965 288.23 170.902 287.293 170.09C286.375 169.295 287.178 168.397 287.72 167.719C290.612 164.098 293.51 160.48 296.473 156.917C313.547 136.389 331.14 116.342 351.062 98.4665C351.808 97.7965 352.62 97.1231 353.521 96.7259C354.243 96.4075 354.755 96.9694 354.846 97.5918L354.845 97.5911ZM231.324 101.058C230.213 100.949 229.9 100.296 230.353 99.4249C230.818 98.5318 231.444 97.7081 232.082 96.9204C249.399 75.5369 267.324 54.6955 287.178 35.5846C289.786 33.074 292.512 30.6837 295.212 28.2683C295.867 27.6827 296.69 26.8182 297.559 27.6317C298.698 28.6969 297.527 29.492 296.837 30.1131C291.03 35.3411 285.364 40.7126 279.902 46.2998C263.746 62.8273 248.693 80.3187 234.215 98.3155C233.377 99.3576 232.694 100.583 231.324 101.058ZM299.733 183.041C298.645 182.72 298.51 181.957 299.002 181.191C299.795 179.959 300.704 178.796 301.626 177.655C319.708 155.28 338.59 133.63 359.61 113.92C361.012 112.605 362.473 111.348 363.964 110.135C364.626 109.598 365.467 108.738 366.303 109.722C367.122 110.688 366.169 111.388 365.54 111.979C362.983 114.38 360.363 116.714 357.81 119.12C341.803 134.206 327.339 150.712 313.197 167.511C309.408 172.013 305.732 176.608 301.989 181.149C301.354 181.919 300.825 182.848 299.733 183.041H299.733ZM344.603 87.4676C344.492 88.8342 343.57 89.4055 342.828 90.0612C331.102 100.413 320.44 111.804 310.02 123.435C300.659 133.885 291.726 144.693 282.91 155.601C282.343 156.302 281.756 156.992 281.119 157.628C280.694 158.053 280.118 158.199 279.598 157.775C279.08 157.351 279.104 156.756 279.42 156.246C279.894 155.478 280.415 154.733 280.98 154.031C297.799 133.14 315.184 112.752 334.585 94.1663C336.952 91.8985 339.435 89.7483 341.904 87.5887C342.76 86.8398 343.738 86.197 344.603 87.4669V87.4676ZM326.026 64.5299C325.511 65.1496 325.084 65.8155 324.517 66.3249C302.053 86.4902 282.618 109.406 263.794 132.881C263.583 133.145 263.368 133.41 263.129 133.65C262.502 134.28 261.832 135.231 260.875 134.475C259.893 133.7 260.661 132.809 261.208 132.123C264.52 127.97 267.824 123.81 271.207 119.715C284.82 103.238 298.919 87.1983 314.302 72.327C317.226 69.5001 320.302 66.8303 323.336 64.1177C323.918 63.5966 324.623 63.0926 325.463 63.6102C325.701 63.7572 325.796 64.136 326.028 64.5299H326.026ZM287.828 18.4415C287.682 19.4325 287.025 19.9087 286.44 20.4317C264.355 40.1671 245.268 62.6355 226.703 85.5889C225.705 86.8242 224.659 89.7762 222.908 88.3567C221.216 86.9854 223.826 85.2781 224.841 84.019C242.289 62.3553 260.256 41.1514 280.729 22.2132C282.305 20.7555 283.956 19.3795 285.594 17.9898C286.122 17.5416 286.747 17.1851 287.417 17.7007C287.648 17.8783 287.728 18.251 287.829 18.4422L287.828 18.4415ZM306.558 42.0084C306.388 42.8621 305.687 43.2913 305.103 43.8123C283.072 63.4586 264.104 85.8998 245.55 108.728C244.501 110.019 243.535 113.149 241.543 111.609C240.023 110.433 242.593 108.596 243.625 107.291C258.785 88.1206 274.822 69.7144 292.127 52.4352C295.883 48.6846 299.923 45.2162 303.862 41.6499C304.427 41.1384 305.091 40.5609 305.981 40.9167C306.434 41.0976 306.648 41.4935 306.558 42.0071L306.558 42.0084ZM189.725 130.861C199.362 130.776 208.938 131.486 218.474 132.866C221.076 133.242 223.014 134.279 224.67 136.452C233.303 147.783 242.098 158.991 250.797 170.273C251.566 171.27 253.094 172.291 252.095 173.757C251.249 174.998 249.788 174.178 248.61 173.993C230.943 171.217 213.214 171.523 195.465 172.94C190.167 173.363 184.875 173.863 179.587 174.398C177.892 174.569 176.845 173.805 175.876 172.552C166.816 160.836 157.711 149.153 148.658 137.431C146.418 134.531 146.712 133.768 150.459 133.309C163.496 131.713 176.593 130.979 189.725 130.861ZM248.498 171.341C239.697 159.991 231.48 149.516 223.429 138.913C221.706 136.645 219.73 135.554 216.971 135.2C196.077 132.516 175.2 133.48 154.327 135.37C150.827 135.687 150.74 135.998 152.889 138.783C160.349 148.447 167.969 157.99 175.241 167.791C177.59 170.956 180.115 171.898 183.882 171.432C193.762 170.208 203.695 169.589 213.658 169.478C224.965 169.352 236.259 169.458 248.498 171.341ZM203.037 110.052C197.364 109.006 191.744 108.274 186.096 108.079C168.782 107.481 151.491 107.783 134.261 109.868C132.853 110.038 130.407 111.024 130.126 109.135C129.808 107.004 132.474 107.507 133.808 107.373C156.009 105.142 178.224 103.663 200.454 107.049C201.459 107.202 202.457 107.41 203.443 107.658C204.211 107.851 205.111 108.097 204.891 109.155C204.671 110.217 203.682 109.929 203.038 110.053L203.037 110.052ZM180.67 120.159C167.638 120.057 155.683 120.866 143.754 122.146C142.629 122.266 141.497 122.374 140.369 122.382C139.448 122.388 138.065 122.928 138.018 121.336C137.984 120.183 139.173 120.092 140.052 119.991C144.096 119.53 148.136 118.976 152.195 118.707C166.076 117.784 179.956 116.873 193.883 117.881C199.303 118.273 204.707 118.751 210.051 119.711C211.208 119.919 213.369 119.583 212.984 121.569C212.68 123.139 210.839 122.388 209.732 122.198C199.769 120.495 189.73 119.998 180.669 120.159L180.67 120.159ZM163.188 92.8038C173.048 92.6004 182.86 93.1643 192.605 94.7179C193.053 94.7893 193.526 94.7866 193.942 94.939C195.018 95.3335 196.976 95.1043 196.658 96.7585C196.335 98.4372 194.624 97.5965 193.48 97.4156C175.825 94.6159 158.104 94.8192 140.359 96.2477C135.175 96.6646 130.002 97.1932 124.819 97.6217C123.666 97.7169 121.893 98.3475 121.732 96.6463C121.579 95.022 123.446 95.1247 124.596 95.0151C137.431 93.7867 150.269 92.5794 163.188 92.8038ZM268.691 200.12C256.857 198.262 245.36 197.396 233.799 197.713C222.039 198.035 210.291 198.64 198.601 200.058C198.041 200.126 197.474 200.208 196.913 200.193C196.101 200.17 195.236 200.052 195.215 198.987C195.199 198.146 195.93 197.854 196.6 197.758C198.39 197.502 200.189 197.311 201.988 197.131C222.292 195.101 242.606 194.206 262.942 196.677C264.849 196.909 266.75 197.231 268.63 197.622C269.469 197.796 270.596 198.026 270.267 199.299C270.013 200.284 269.075 200.144 268.692 200.12H268.691ZM228.4 182.999C238.605 182.821 248.783 183.1 258.86 184.926C259.638 185.067 260.431 185.183 261.178 185.426C261.844 185.643 262.419 186.076 262.187 186.923C262.009 187.574 261.426 187.757 260.847 187.718C259.946 187.659 259.049 187.511 258.156 187.37C243.427 185.047 228.617 184.915 213.783 185.848C205.877 186.345 197.984 187.051 190.084 187.642C188.947 187.727 187.245 188.508 187.127 186.61C187.036 185.145 188.705 185.285 189.768 185.166C202.605 183.732 215.469 182.743 228.4 182.999Z" fill="#F6EDE6"/>
</svg>