<svg width="489" height="257" viewBox="0 0 489 257" fill="none" xmlns="http://www.w3.org/2000/svg">
<path opacity="0.2" d="M488.999 247.476C473.064 249.899 457.016 251.109 440.941 252.093C421.358 253.292 401.76 253.993 382.151 254.59C350.431 255.557 318.71 255.556 286.986 255.277C279.305 255.209 271.619 254.95 263.953 254.491C259.582 254.228 255.573 255.696 251.399 256.356C243.275 257.639 235.234 256.862 227.267 255.282C214.384 252.727 201.345 251.977 188.271 251.442C167.516 250.592 146.748 250.637 125.984 250.322C109.878 250.079 93.7712 250.238 77.6686 249.927C60.1798 249.59 42.685 249.401 25.2124 248.464C22.4379 248.314 19.66 248.163 16.8968 247.879C14.9402 247.679 13.1693 247.29 11.564 249.161C10.5899 250.297 8.65147 250.034 7.8208 248.852C6.27686 246.657 4.06926 246.524 1.84201 246.145C1.07667 246.015 -0.113583 246.046 0.00873333 244.986C0.14284 243.82 1.30952 244.299 2.03801 244.385C30.4003 247.75 58.9026 247.648 87.395 248.069C106.938 248.358 126.482 248.113 146.02 248.515C163.426 248.873 180.842 248.975 198.232 249.942C209.1 250.546 219.859 251.998 230.572 253.935C236.765 255.056 243.041 255.731 249.354 254.74C250.044 254.632 250.827 254.836 251.502 254.089C243.393 253.834 235.428 253.277 227.476 252.529C223.713 252.175 220.027 251.696 216.722 249.557C215.755 248.932 214.398 248.851 213.199 248.657C193.275 245.429 176.694 235.907 163.204 221.159C155.055 212.25 149.626 201.53 145.777 190.088C140.538 174.513 137.556 158.542 138.523 142.046C139.77 120.794 145.259 101.044 159.731 84.6595C167.788 75.5388 177.586 68.6502 187.843 62.2684C203.802 52.3387 221.512 48.2426 239.842 46.0208C242.012 45.7576 244.12 45.574 246.353 45.7635C250.063 46.0784 253.485 44.8659 256.049 41.9558C258.527 39.1435 258.345 35.8141 255.671 33.1943C254.249 31.8022 252.52 30.8652 250.799 29.918C242.441 25.3165 241.152 21.1265 241.699 11.0727C241.943 6.61301 245.414 3.70038 249.335 1.80735C257.539 -2.15342 271.65 0.69918 277.861 7.40871C280.6 10.3676 281.815 13.9504 282.327 17.8374C282.513 19.2531 282.193 20.6634 281.533 21.8877C278.192 28.0924 274.28 33.8856 267.615 36.9065C264.122 38.4895 263.023 40.8801 263.3 44.4895C263.763 50.5386 263.832 50.8821 269.815 50.7281C281.137 50.4363 291.305 54.3843 301.309 58.9749C302.849 59.6815 303.002 59.5393 303.665 57.9327C305.647 53.1368 305.35 47.7727 307.725 43.0944C309.129 40.3289 310.701 39.2473 313.878 39.6031C320.558 40.3511 325.698 46.7791 324.937 53.5049C324.212 59.9167 321.4 65.2263 316.21 69.1004C314.66 70.2578 315.893 70.6997 316.481 71.271C320.951 75.6097 324.977 80.3361 328.989 85.0985C339.038 97.0275 344.161 110.988 346.163 126.224C348.975 147.618 346.338 168.33 338.101 188.322C330.904 205.792 318.967 219.373 304.169 230.76C292.493 239.744 280.224 247.597 266.175 252.688C269.515 252.857 272.854 253.142 276.196 253.178C294.756 253.376 313.317 253.704 331.876 253.621C350.514 253.537 369.157 253.215 387.787 252.644C405.757 252.093 423.724 251.272 441.672 250.23C456.515 249.368 471.352 248.252 486.078 246.042C487.033 245.898 488.025 246.01 489 246.003V247.477L488.999 247.476ZM255.007 61.8147C250.806 61.8088 246.999 61.3777 243.205 62.1119C236.303 63.4474 229.381 64.6963 222.519 66.2159C217.978 67.2212 217.314 68.9769 219.437 73.0218C219.703 73.5287 219.975 74.0355 220.2 74.5611C220.666 75.6505 220.981 76.8035 220.145 77.8162C219.196 78.9662 218.062 78.2182 216.979 77.953C216.294 77.7857 215.579 76.6726 214.884 77.8265C213.95 79.3775 213.32 78.3698 212.701 77.6129C212.133 76.9181 211.54 76.2017 211.164 75.3981C210.204 73.3486 208.891 73.3687 207.018 74.2151C200.605 77.114 194.255 80.1363 188.088 83.5258C185.727 84.8234 183.356 86.1717 181.23 87.8103C177.617 90.5965 177.704 94.1439 181.196 96.9576C183.433 98.7601 185.494 100.745 187.187 103.082C187.516 103.536 187.941 104.039 187.593 104.637C187.466 104.853 186.973 105.094 186.807 105.009C185.014 104.095 182.568 104.689 181.328 102.432C180.508 100.939 179.226 99.701 178.399 98.211C177.59 96.7534 176.739 96.4887 175.532 97.5737C169.922 102.618 164.368 107.732 161.022 114.684C158.081 120.795 157.779 126.962 161.068 133.081C161.652 134.167 162.296 135.172 163.652 135.521C165.87 136.091 168.26 136.443 168.955 139.284C169.055 139.695 169.96 139.93 169.633 140.634C169.349 141.247 168.707 141.284 168.136 141.228C165.33 140.953 162.686 140.2 160.341 138.545C159.68 138.078 159.473 136.762 158.235 137.319C156.952 137.896 156.905 139.084 156.902 140.245C156.883 145.977 156.668 151.719 156.935 157.438C157.223 163.611 158.539 169.615 161.553 175.114C161.991 175.913 162.296 177.031 163.698 176.581C166.896 175.558 170.402 176.534 173.555 175.078C174.096 174.829 175 174.622 175.248 175.456C175.544 176.454 174.569 176.635 173.91 176.837C171.158 177.676 168.569 178.884 166.021 180.198C165.447 180.493 164.87 180.736 164.153 180.543C162.072 179.982 161.063 180.934 161.742 183.135C162.822 186.639 163.915 190.15 166.683 192.872C169.496 195.637 171.912 198.762 173.37 202.483C174.618 205.665 177.343 207.383 179.807 209.38C180.516 209.955 181.214 210.081 181.995 209.393C184.315 207.348 187.294 206.527 189.981 205.16C190.486 204.903 191.01 204.456 191.514 205.033C192.058 205.656 191.72 206.333 191.266 206.798C189.181 208.93 187.033 210.995 184.205 212.587C187.136 214.329 189.987 216.071 192.882 217.736C200.07 221.869 207.432 225.578 215.732 226.963C219.88 227.654 221.747 226.799 224.053 223.387C225.161 221.746 226.105 220.13 226.615 218.165C227.331 215.407 228.851 218.502 230.132 217.959C230.747 217.699 230.636 219.097 230.234 219.697C228.747 221.911 227.678 224.417 225.559 226.23C225.825 226.364 225.955 226.487 226.088 226.488C238.038 226.605 249.318 223.117 260.677 220.044C262.373 219.585 263.491 218.452 264.32 216.968C265.061 215.643 265.406 214.442 263.81 213.377C262.874 212.752 262.586 211.661 262.654 210.539C262.7 209.777 263.129 209.081 263.879 209.6C265.038 210.403 266.959 210.381 266.962 212.583C266.964 214.427 268.135 214.611 269.692 214C272.818 212.773 275.895 211.451 278.822 209.796C284.017 206.861 289.089 203.688 294.742 201.642C295.895 201.224 296.983 200.609 297.757 199.6C299.077 197.884 298.602 196.037 296.634 195.224C296.184 195.038 295.658 195.015 295.237 194.787C294.12 194.184 293.303 193.188 294.041 192.001C294.909 190.606 295.686 191.928 296.386 192.458C299.055 194.482 299.395 194.46 301.44 191.829C308.511 182.737 314.304 172.876 318.99 162.363C320.83 158.235 320.35 157.267 316.078 155.612C315.289 155.307 314.05 155.173 314.215 154.019C314.387 152.821 315.61 153.171 316.449 153.095C319.498 152.817 320.069 152.362 320.039 149.354C319.953 140.842 319.768 132.33 319.609 123.818C319.58 122.227 319.084 120.759 318.261 119.405C317.465 118.095 316.569 117.519 315.101 118.678C313.535 119.914 311.663 120.226 309.765 119.592C308.915 119.309 307.865 118.568 309.18 117.713C310.583 116.8 311.882 115.431 313.742 115.527C316.293 115.659 316.707 114.095 316.713 112.081C316.717 110.759 316.638 109.441 316.151 108.213C313.305 101.045 310.257 93.9623 305.169 88.0416C303.021 85.5433 300.393 83.5942 297.078 82.7532C295.343 82.3133 293.864 82.5446 292.555 83.8146C291.196 85.1319 289.628 86.1786 288 87.1288C287.453 87.4482 286.816 87.9127 286.207 87.3443C285.496 86.6815 285.99 85.9473 286.342 85.3357C287.452 83.4106 289.159 82.1957 291.199 81.3936C291.952 81.0979 292.847 80.8405 292.946 79.8721C293.052 78.8495 292.102 78.5548 291.44 78.1395C285.891 74.6609 280.198 71.4275 274.289 68.6108C271.126 67.1036 268.074 65.2824 264.585 64.5344C263.455 64.2923 262.262 63.9966 261.345 64.9596C259.658 66.7311 257.866 68.444 257.23 70.9556C256.346 74.4464 255.324 77.9062 254.552 81.4212C252.142 92.3867 250.866 103.543 249.249 114.636C247.873 124.073 244.8 133.088 242.911 142.39C242.262 145.586 242.007 149.107 240.42 151.799C238.777 154.582 239.613 156.05 241.268 157.959C243.777 160.855 246.405 163.679 247.905 167.305C248.153 167.905 248.682 168.511 247.934 169.027C247.346 169.432 246.861 168.919 246.434 168.547C246.004 168.17 245.631 167.725 245.189 167.364C240.257 163.341 237.497 157.117 231.302 154.256C228.702 153.055 228.584 149.218 230.466 146.898C231.278 145.896 231.49 145.021 231.277 143.788C228.741 129.106 226.266 114.415 223.737 99.7325C223.433 97.9694 223.275 96.1285 222.312 94.4899C221.493 95.2865 222.159 97.0196 220.816 96.8892C219.567 96.7682 219.685 95.2624 219.532 94.2586C219.204 92.1146 219.681 90.0198 220.108 87.9329C220.236 87.3114 220.242 86.5359 221.071 86.3995C221.783 86.2819 221.994 86.9482 222.305 87.4073C222.795 88.1317 223.614 88.358 224.318 88.7561C226.137 89.7851 227.61 91.1717 228.656 92.989C228.98 93.551 229.42 94.2404 228.785 94.7703C228.08 95.3594 227.622 94.6301 227.172 94.1862C226.336 93.36 225.646 92.3567 224.229 91.6235C224.677 93.9874 224.915 96.0232 225.456 97.9738C229.538 112.674 232.503 127.593 234.351 142.737C234.471 143.723 234.182 145.126 235.814 145.062C237.2 145.008 238.782 145.366 239.511 143.455C240.679 140.399 242.02 137.426 242.605 134.158C244.481 123.683 246.8 113.274 248.285 102.745C249.893 91.3509 254.598 80.3233 252.433 68.4327C252.023 66.178 253.61 64.1186 255.008 61.8127L255.007 61.8147ZM224.143 250.198C234.482 251.38 244.835 251.941 255.199 252.444C258.755 252.617 261.939 251.856 265.212 250.72C278.974 245.943 291.162 238.456 302.674 229.637C317.852 218.009 329.922 204.037 337.073 186.073C343.987 168.704 346.379 150.673 344.958 132.129C344.166 121.794 342.039 111.688 337.657 102.214C332.42 90.8908 324.275 81.7144 315.597 72.9751C314.461 71.8305 313.446 70.3656 311.822 69.9109C308.94 69.1039 306.684 67.3895 304.713 65.2853C297.145 57.2049 287.171 54.5466 276.795 53.0522C272.37 52.4149 267.822 52.6315 263.33 52.4573C258.001 52.2506 252.577 52.0252 247.746 49.6686C244.037 47.8593 240.361 47.7166 236.55 48.2096C215.704 50.9077 196.324 57.4219 179.174 70.0113C169.463 77.1405 160.57 84.9804 154.044 95.2432C144.525 110.213 141.011 126.913 140.259 144.315C139.681 157.687 142.005 170.723 145.638 183.566C152.991 209.557 167.96 229.192 192.826 240.622C199.024 243.471 205.507 245.438 212.231 246.59C212.974 246.717 214.231 247.137 213.551 245.605C211.67 241.366 211.968 236.967 212.398 232.555C212.516 231.344 212.047 230.982 210.954 230.828C205.035 229.997 199.642 227.586 194.378 224.949C189.504 222.507 185.075 219.424 182.605 214.255C182.237 213.484 181.661 212.798 180.895 212.563C177.239 211.442 175.079 208.712 172.754 205.868C166.715 198.482 161.581 190.837 158.988 181.369C155.189 167.494 152.899 153.54 153.756 139.168C154.647 124.205 158.829 110.252 168.119 98.3118C183.296 78.8067 203.734 67.7221 227.432 62.0745C235.892 60.0584 244.676 60.366 253.135 58.3691C254.122 58.1364 255.152 58.3381 255.944 58.9547C256.917 59.712 257.734 59.7115 258.837 59.1643C261.624 57.7821 264.595 57.4824 267.677 57.9509C275.429 59.1289 282.387 62.4613 289.023 66.331C301.914 73.848 312.324 84.2674 321.365 95.9877C327.714 104.218 331.522 113.748 332.9 124.096C334.409 135.432 334.12 146.801 332.789 158.142C331.745 167.041 330.139 175.878 326.332 184.019C316.421 205.215 301.525 221.949 280.419 232.392C262.63 241.194 244.153 248.204 224.143 250.198ZM314.305 90.099C314.097 91.0345 314.58 91.4355 314.848 91.8995C319.392 99.7773 322.445 108.221 324.201 117.121C327.932 136.037 326.43 154.764 321.943 173.354C319.479 183.56 314.278 192.143 306.112 198.733C282.866 217.494 256.381 227.953 226.482 229.451C222.907 229.63 219.359 229.859 215.9 230.88C215.242 231.074 214.526 231.193 214.426 231.949C213.81 236.595 213.272 241.243 215.656 245.625C216.296 246.802 217.253 247.304 218.596 247.5C223.347 248.19 228.056 247.96 232.752 247.111C246.933 244.547 260.298 239.471 273.441 233.744C286.827 227.912 298.607 219.786 308.111 208.609C315.939 199.403 322.944 189.655 326.701 177.946C331.657 162.502 332.45 146.62 331.683 130.579C331.222 120.935 328.716 111.846 323.977 103.418C321.303 98.6627 318.197 94.2123 314.305 90.0985L314.305 90.099ZM269.824 23.2685C271.405 23.3482 273.099 23.3423 274.27 22.2612C280.124 16.8586 281.508 12.7315 274.286 8.96319C266.534 4.91828 258.143 4.00203 249.538 5.73022C246.521 6.33597 245.346 8.80474 244.784 11.3892C244.284 13.6911 246.231 14.8263 247.907 15.8878C248.525 16.2795 249.172 16.647 249.847 16.927C254.976 19.0553 260.198 20.9365 265.487 22.6224C266.886 23.0682 268.338 23.3452 269.824 23.2685ZM300.46 199.349C300.976 198.961 301.303 198.732 301.61 198.48C316.092 186.585 322.482 170.791 323.5 152.498C324.254 138.961 323.124 125.52 320.943 112.156C319.916 105.868 316.098 100.995 312.877 95.8145C314.168 99.0805 315.701 102.23 317.097 105.44C318.423 108.488 319.252 111.639 318.107 114.968C317.834 115.762 317.996 116.376 318.607 116.95C320.575 118.798 321.43 121.222 321.503 123.794C321.731 131.967 321.862 140.144 321.876 148.32C321.881 151.074 320.875 153.926 321.339 156.555C321.768 158.986 321.647 161.015 320.672 163.163C315.682 174.165 309.619 184.52 302.048 193.945C300.796 195.504 300.03 197.027 300.46 199.35L300.46 199.349ZM244.18 19.818C244.474 21.9541 245.425 23.3738 246.645 24.6906C248.806 27.0255 251.739 28.1986 254.34 29.8698C257.358 31.8081 259.891 34.1937 259.61 38.089C259.316 42.161 256.641 44.6519 253.136 46.3599C252.473 46.6827 251.575 46.6581 251.025 47.6516C253.087 48.2859 254.936 48.9158 256.819 49.4231C262.807 51.0376 262.613 50.6494 261.576 45.1907C260.635 40.2418 262.018 37.7677 266.512 35.4785C269.232 34.0928 271.667 32.3262 273.768 30.1173C274.438 29.4121 275.313 28.7685 275.4 27.6529C263.835 29.979 254.062 25.9621 244.18 19.818H244.18ZM307.779 48.6643C307.529 50.9904 307.201 52.7727 306.594 54.5078C304.653 60.0599 303.875 61.2975 309.759 65.3567C310.562 65.9112 311.301 66.5642 312.049 67.1951C313.329 68.2742 314.639 68.1389 315.836 67.1582C318.652 64.8498 320.569 61.9146 321.91 58.3947C314.514 59.1919 310.727 55.0023 307.779 48.6643ZM313.648 44.9806C311.217 45.0027 309.564 46.4977 310.263 48.3169C311.327 51.0883 312.984 53.5945 315.496 55.2483C317.214 56.3796 319.253 56.3447 321.114 55.3492C322.435 54.6431 323.238 53.5689 322.812 51.9293C322.106 49.209 316.502 44.9545 313.648 44.9806ZM279.053 20.1408C276.945 22.895 274.552 25.0041 270.956 25.1989C268.723 25.32 266.526 24.9922 264.452 24.2369C257.535 21.7174 250.258 20.0454 243.878 15.4001C244.843 17.6381 246.314 18.9072 247.97 19.9706C253.863 23.7547 260.381 25.7855 267.284 26.5453C270.407 26.8892 273.471 26.3401 276.322 24.883C278.238 23.9038 279.192 22.3611 279.053 20.1408ZM311.81 91.0384C307.856 82.614 300.894 77.4919 292.325 73.0149C293.88 75.1501 294.03 77.424 295.632 78.5297C301.252 82.4083 306.931 86.1899 311.81 91.0384ZM192.41 78.8992C197.487 76.5934 202.485 74.1876 207.589 72.0003C209.263 71.2833 210.666 70.927 211.678 72.8845C212.38 72.1631 211.649 70.8301 212.811 70.7745C213.918 70.7218 213.776 71.9107 214.07 72.6021C214.632 73.9258 215.449 75.0167 216.696 75.7371C217.227 76.0442 217.854 76.6603 218.435 76.0132C218.867 75.5329 218.418 74.9272 218.144 74.4415C216.841 72.1287 215.313 69.8676 217.203 66.7754C208.037 69.8651 199.923 73.789 192.41 78.8992ZM185.953 215.832C189.898 221.826 207.073 229.881 213.038 228.569C203.334 226.103 194.841 221.048 185.953 215.832ZM261.328 60.2848C266.486 61.4358 271.664 62.5533 276.719 64.1964C281.744 65.8296 286.603 67.8815 291.447 69.9537C281.959 64.9901 272.92 58.5605 261.328 60.2848Z" fill="#F6EDE6"/>
</svg>
