<svg width="959" height="537" viewBox="0 0 959 537" fill="none" xmlns="http://www.w3.org/2000/svg">
<path opacity="0.2" d="M0.00093346 533.962C0.0539335 535.426 1.16393 535.964 2.39593 536.086C3.71793 536.217 5.05393 536.237 6.38393 536.237C147.239 536.232 288.093 536.219 428.948 536.213C439.606 536.213 450.26 536.042 460.803 534.255C474.514 531.93 479.267 526.877 479.079 512.596C478.776 489.565 477.685 466.544 476.91 443.519C476.471 430.46 475.935 417.404 475.555 404.342C474.945 383.377 474.186 362.426 472.604 341.506C471.882 331.96 468.206 324.873 459.784 320.386C452.54 316.528 445.544 312.173 438.413 308.084C433.428 305.226 431.344 301.2 431.451 295.04C431.774 276.553 430.086 277.801 448.14 272.504C472.936 265.228 495.768 253.053 519.037 241.981C528.863 237.305 538.605 232.443 548.436 227.779C552.562 225.821 556.946 225.416 560.933 227.937C578.91 239.307 596.799 250.825 614.515 262.698C604.14 257.772 593.786 252.798 583.383 247.937C577.013 244.96 570.538 242.247 563.862 240.053C555.412 237.275 547.169 237.414 539.099 241.489C524.569 248.825 510.403 256.794 497.498 266.956C494.977 268.94 492.596 271.125 490.804 273.854C488.053 278.045 488.669 281.588 492.631 284.56C496.203 287.24 500.42 288.437 504.556 289.707C530.409 297.642 556.167 305.869 581.138 316.485C605.184 326.709 629.055 337.325 649.654 354.206C659.504 362.278 668.373 371.35 673.839 383.312C678.791 394.15 678.021 395.466 667.224 399.409C661.449 401.519 656.05 401.527 650.221 399.566C636.265 394.872 622.77 389.023 609.331 383.006C607.929 382.379 605.727 382.122 606.267 379.696C606.78 377.389 608.743 377.152 610.647 377.177C615.92 377.244 620.706 379.344 625.578 381.071C633.598 383.913 641.416 387.392 649.826 388.988C654.192 389.816 658.25 389.486 661.194 385.705C664.265 381.761 662.951 377.533 661.144 373.534C657.872 366.294 652.097 361.287 646.283 356.389C634.641 346.581 620.881 340.78 607.321 334.611C575.632 320.196 544.03 305.53 510.66 295.594C494.959 290.92 479.067 287.101 462.524 287.924C456.607 288.219 450.171 288.567 447.768 295.255C445.475 301.635 450.382 305.781 454.306 309.716C460.824 316.254 468.661 320.87 476.611 325.218C505.625 341.085 536.009 353.911 565.842 367.961C576.291 372.883 586.752 377.781 597.257 382.574C599.694 383.686 600.826 385.213 600.848 388.04C600.927 398.035 602.288 407.929 603.744 417.774C604.769 424.705 602.119 431.008 601.568 437.651C600.048 456.005 601.826 474.03 605.927 491.875C606.156 492.874 606.516 493.852 606.909 494.796C607.71 496.723 608.602 498.85 611.061 498.519C613.455 498.197 614.005 495.998 614.326 493.898C615.508 486.17 614.688 478.416 614.043 470.747C612.891 457.055 611.138 443.417 609.581 429.763C608.722 422.225 612.178 416.729 620.041 413.82C628.278 410.773 637.065 410.858 645.567 409.305C653.273 407.898 660.958 406.788 668.847 407.128C673.576 407.332 677.634 405.2 680.088 400.736C681.034 399.013 682.351 397.867 683.875 396.76C691.903 390.931 692.888 384.948 687.25 376.608C682.358 369.371 675.495 363.954 670.258 357.036C668.62 354.871 666.88 352.759 665.484 350.433C660.782 342.599 661.47 336.987 667.793 330.582C672.319 325.998 677.793 323.151 683.943 321.833C689.849 320.566 694.489 323.131 697.035 328.688C700.071 335.316 699.179 342.544 695.003 346.388C692.923 348.304 690.834 347.987 688.507 347.116C684.902 345.767 681.244 344.563 677.326 344.789C672.295 345.078 668.788 348.001 668.894 351.786C668.998 355.492 672.12 357.669 677.366 357.774C680.91 357.844 684.504 357.534 687.613 355.905C695.405 351.82 700.821 358.149 707.082 360.425C709.385 361.262 707.302 363.36 706.543 364.699C703.092 370.779 699.305 376.673 696.144 382.909C692.059 390.965 693.389 395.612 701.477 398.985C724 408.373 747.22 414.824 771.785 414.43C781.122 414.28 789.13 410.171 795.389 403.496C831.219 365.283 866.693 326.704 889.75 278.236C898.158 260.56 904.437 242.098 906.576 222.346C907.557 213.284 907.053 204.407 903.144 196.12C897.423 183.991 883.634 178.525 869.327 182.203C857.589 185.22 849.548 193.251 842.89 202.973C832.139 218.669 825.019 236.347 817.717 253.881C807.323 278.841 797.144 303.896 786.854 328.902C785.943 331.117 784.938 333.293 783.904 335.45C773.604 356.938 755.037 366.784 731.9 362.906C727.806 362.22 723.781 361.079 719.739 360.083C717.335 359.491 716.775 358.483 718.661 356.279C724.889 348.998 731.916 343.701 742.001 344.96C743.48 345.145 744.995 345.052 746.493 345.046C757.614 345.003 763.347 340.873 767.151 329.974C770.621 320.033 772.185 309.641 773.145 299.2C775.33 275.422 777.083 251.602 779.267 227.824C780.388 215.622 784.114 204.343 791.781 194.659C793.823 192.08 794.963 191.66 796.687 194.891C798.934 199.102 801.413 203.226 804.859 206.552C808.592 210.155 811.272 209.426 813.021 204.429C813.36 203.462 813.694 202.461 813.818 201.448C816.13 182.495 827.08 168.74 839.765 156.232C843.56 152.49 848.521 150.016 852.926 146.928C857.47 143.742 862.176 140.728 865.76 136.335C867.235 134.527 868.02 134.303 869.288 136.553C875.621 147.792 884.329 157.139 892.586 166.777C914.585 192.457 920.457 222.707 917.14 255.75C914.568 281.367 907.169 305.892 901.249 330.754C899.659 337.432 898.139 344.126 896.219 352.399C895.661 349.158 895.392 347.358 895.036 345.574C893.672 338.738 889.392 336.67 883.715 340.534C875.851 345.886 869.86 353.365 863.656 360.545C848.475 378.114 834.653 396.939 818.104 413.247C812.79 418.484 807.143 423.265 800.838 427.211C792.315 432.545 783.416 433.623 774.053 430.036C769.372 428.242 764.794 426.14 760.059 424.523C749.944 421.069 742.585 424.15 737.355 433.757C733.109 441.557 731.476 450.195 730.198 458.864C727.565 476.726 726.198 494.72 725.805 512.78C725.635 520.594 728.285 523.547 735.742 525.019C740.528 525.964 745.347 525.946 750.171 525.947C817.268 525.965 884.366 525.966 951.463 525.978C953.85 525.978 956.241 525.83 958.548 526.319C958.17 524.561 957.792 522.803 957.414 521.045C956.005 521.302 954.539 521.317 953.037 521.316C886.106 521.288 819.175 521.281 752.244 521.289C746.91 521.289 741.603 521.105 736.315 520.273C732.223 519.629 730.016 517.561 730.279 513.049C731.517 491.777 732.259 470.449 736.64 449.52C737.805 443.956 739.479 438.527 742.765 433.833C746.653 428.281 750.708 426.688 757.096 428.616C761.236 429.864 765.322 431.434 769.254 433.267C782.942 439.652 795.483 437.267 807.378 428.499C818.163 420.548 827.286 410.791 836.133 400.71C850.22 384.658 862.858 367.287 877.704 351.928C880.288 349.255 882.822 346.507 886.031 344.571C888.65 342.99 890.245 343.794 890.495 346.815C890.779 350.236 890.778 353.685 890.836 357.122C891.207 379.084 886.922 400.533 884.24 422.168C882.552 435.787 880.757 449.458 882.566 463.267C883.016 466.706 883.636 470.068 885.091 473.193C885.977 475.096 887.245 476.827 889.581 476.718C891.886 476.611 893.123 474.864 893.834 472.869C895.526 468.124 896 463.118 895.84 458.137C895.399 444.393 894.942 430.643 894.075 416.923C892.703 395.217 895.983 374.13 900.758 353.102C906.877 326.153 914.665 299.616 919.52 272.36C922.885 253.471 923.856 234.527 920.79 215.436C917.062 192.228 905.048 173.708 890.2 156.785C877.967 142.843 867.229 128.169 864.683 108.737C864.249 105.429 864.272 102.329 864.992 99.0666C868.407 83.5977 870.397 67.948 870.175 52.0367C870.003 39.7311 865.423 29.6605 856.034 22.0697C839.832 8.97024 821.36 1.50253 800.888 0.454317C784.349 -0.392313 771.655 8.39031 760.971 20.5874C757.058 25.0541 753.212 29.5685 748.821 33.5484C747.569 34.6834 745.995 35.7709 746.737 37.797C747.37 39.5234 749.081 39.7001 750.566 39.5616C755.48 39.1016 755.545 41.4254 754.287 45.4063C751.627 53.8313 751.346 62.6811 751.127 71.4214C750.973 77.5731 749.378 82.8214 745.803 87.6614C743.285 91.0706 740.844 94.5998 738.853 98.3502C735.377 104.898 737.109 109.191 744.084 110.417C748.318 111.161 749.752 113.169 749.821 117.201C749.868 119.928 749.857 122.822 752.756 124.375C753.356 124.696 754.104 125.222 753.415 125.909C749.074 130.234 753.532 132.178 755.69 134.522C757.769 136.779 759.052 139.166 758.801 142.328C758.72 143.356 758.748 144.392 758.72 145.423C758.326 159.824 765.176 165.354 778.894 161.572C789.641 158.611 799.098 152.737 808.581 147.019C814.47 143.468 819.973 139.228 825.882 135.716C833.559 131.152 836.121 124.418 834.904 115.711C834.668 114.026 834.5 112.331 834.195 109.744C839.085 114.576 843.612 118.661 849.803 119.359C831.524 133.945 813.326 148.395 795.208 162.953C785.673 170.614 785.38 172.014 790.418 183.16C791.507 185.57 791.879 187.495 789.919 189.688C778.424 202.545 775.177 218.532 773.688 235.261C771.251 262.627 770.902 290.215 765.724 317.296C764.69 322.706 763.285 327.999 760.786 332.933C758.575 337.298 755.147 339.573 750.398 339.751C749.566 339.782 748.722 339.916 747.904 339.817C733.971 338.119 722.749 343.083 714.153 354.472C712.718 356.373 711.103 356.95 708.95 355.816C707.767 355.192 706.482 354.781 705.275 354.204C703.025 353.128 699.889 352.576 698.801 350.742C697.577 348.68 701.004 347.071 701.822 344.856C704.815 336.755 703.831 329.195 698.664 322.525C693.907 316.385 687.381 315.737 680.488 317.841C673.994 319.824 668.247 323.234 663.544 328.334C656.889 335.55 656.027 343.354 660.976 351.873C664.951 358.714 670.29 364.406 675.668 370.047C678.826 373.359 682.034 376.638 684.387 380.635C686.234 383.771 686.906 387.065 684.379 390.207C682.989 391.935 681.715 392.22 680.928 389.555C675.047 369.644 661.078 356.528 645.38 345.066C623.721 329.251 599.412 318.808 574.904 308.857C552.11 299.602 528.726 292.171 505.268 284.97C502.568 284.141 499.883 283.137 497.35 281.876C493.071 279.744 492.854 278.257 496.184 274.581C497.768 272.831 499.524 271.201 501.387 269.776C513.745 260.324 527.173 252.741 540.961 245.8C548.449 242.031 556.044 242.303 563.769 245.033C581.623 251.342 598.412 260.15 615.342 268.591C643.234 282.499 670.329 298.002 697.683 312.986C701.062 314.836 704.514 316.588 708.061 318.052C710.394 319.015 713.482 321.064 715.243 317.891C717.042 314.651 713.769 312.987 711.658 311.622C706.301 308.161 700.921 304.673 695.27 301.777C651.368 279.285 608.927 254.149 567.875 226.531C559.807 221.103 552.36 220.268 543.571 224.601C520.141 236.152 496.883 248.101 472.899 258.429C462.585 262.87 452.056 266.594 441.265 269.575C429.182 272.913 427.967 276.091 426.768 288.675C425.441 302.608 430.987 310.774 442.576 316.209C447.865 318.69 452.717 322.15 457.951 324.775C464.749 328.184 467.511 333.915 467.955 341.322C468.572 351.616 469.498 361.895 469.873 372.197C470.786 397.284 471.458 422.381 472.229 447.473C472.884 468.783 473.681 490.09 474.148 511.404C474.441 524.785 471.863 527.804 459.186 529.629C448.295 531.197 437.308 531.537 426.324 531.539C286.968 531.562 147.611 531.561 8.25493 531.574C6.25893 531.574 4.25793 531.591 2.26993 531.745C1.03293 531.841 -0.0520665 532.475 0.00193346 533.965L0.00093346 533.962ZM889.282 470.066C885.053 452.944 887.384 435.859 889.404 418.875C890.023 436.018 892.048 453.065 889.282 470.066ZM756.259 64.025C755.999 57.1351 757.408 50.3476 759.574 43.7979C760.084 42.2545 760.406 40.2232 762.703 40.4279C769.923 41.0729 776.401 42.0663 776.687 52.0905C776.954 61.422 780.669 68.131 789.461 71.5692C794.874 73.6863 798.405 77.8223 800.291 83.6101C801.179 86.3351 800.915 90.9828 804.592 90.8411C808.557 90.6881 807.877 85.9154 808.751 82.994C810.028 78.7268 810.771 74.2393 814.003 70.9334C815.875 69.0179 818.167 68.2674 820.058 70.6998C822.012 73.2149 823.745 76.0256 822.985 79.56C822.917 79.8784 822.188 80.0789 821.74 80.2701C811.491 84.6428 807.386 93.442 810.74 103.866C812.857 110.446 818.202 111.881 823.022 106.978C824.849 105.119 826.199 102.76 828.067 100.221C829.948 107.359 829.79 114.185 830.008 120.987C830.137 124.993 828.602 127.834 825.466 130.105C812.226 139.688 798.556 148.493 783.617 155.011C779.614 156.757 775.441 158.015 771.038 157.811C766.052 157.578 763.393 155.044 763.192 150.369C762.893 143.374 765.202 135.884 758.202 130.436C761.794 128.82 765.959 129.821 766.137 126.01C766.323 122.024 762.252 121.698 759.554 121.001C755.951 120.071 754.255 118.402 754.056 114.383C753.82 109.611 751.433 106.596 746.275 106.038C741.952 105.571 741.253 103.617 743.326 99.662C744.194 98.006 745.124 96.3148 746.34 94.9347C754.099 86.1314 756.701 75.7103 756.259 64.025ZM824.591 90.2054C824.469 93.3004 823.97 96.3489 822.725 99.1575C821.574 101.755 820.254 105.303 817.024 104.479C814.141 103.744 814.927 99.9194 814.289 97.4705C814.728 93.9506 815.141 90.5383 817.211 87.6965C818.452 85.9919 820.018 84.6211 822.279 85.5453C824.274 86.3599 824.67 88.2072 824.591 90.2054ZM833.128 14.1038C823.86 11.1731 814.396 10.0257 804.733 10.2397C795.124 10.4526 786.103 12.7351 777.256 16.6695C768.329 20.6401 763.223 29.2263 755.877 35.0483C774.199 5.12474 803.457 -2.66033 833.128 14.1038ZM851.439 109.874C846.878 105.982 842.117 101.886 835.338 103.839C833.223 104.449 833.384 102.546 833.208 101.286C832.096 93.2921 828.929 85.7944 827.996 77.7323C827.69 75.088 826.536 72.421 825.274 70.0455C821.348 62.6542 814.108 62.34 809.202 69.1595C806.877 72.391 805.902 76.2396 804.183 80.9917C801.495 73.9075 797.248 69.6516 791.424 67.365C784.655 64.7083 781.849 59.705 781.249 52.4544C780.328 41.3283 778.141 38.778 767.864 36.3177C763.729 35.3284 764.292 33.8399 766.432 31.2783C771.684 24.9911 778.188 20.729 785.796 18.186C797.457 14.2878 809.323 14.264 821.302 16.1237C847.263 20.1542 859.31 34.0259 859.721 60.0534C859.94 73.9737 858.043 87.833 858.83 101.762C858.97 104.236 857.802 106.393 856.858 108.604C855.549 111.671 854.348 112.355 851.439 109.874ZM800.31 185.547C807.015 179.417 814.017 173.683 821.887 168.911C818.935 173.525 816.201 178.205 814.082 183.249C811.89 188.465 810.575 193.941 809.485 199.499C809.216 200.872 808.997 203.885 806.615 201.445C803.186 197.931 800.898 193.477 798.775 189.009C798.042 187.467 799.342 186.432 800.31 185.547ZM795.516 168.741C813.267 154.531 831.055 140.37 848.863 126.234C849.986 125.343 851.349 123.861 852.823 125.072C854.228 126.227 853.33 127.985 852.824 129.389C849.168 139.536 842.711 147.613 834.311 153.741C822.899 162.067 811.1 169.819 800.44 179.215C795.353 183.7 794.582 183.404 792.564 176.676C792.368 176.023 792.243 175.347 792.187 175.111C791.83 171.823 793.695 170.199 795.516 168.741ZM724.175 366.266C753.232 373.833 777.272 362.095 789.328 334.76C801.616 306.898 812.223 278.301 824.219 250.316C831.092 234.28 837.726 218.077 847.922 203.869C853.673 195.855 860.606 189.281 870.401 186.836C887.22 182.639 899.517 191.373 901.88 208.859C902.797 215.648 902.084 222.278 900.994 228.847C897.291 251.162 888.849 271.721 878.003 291.203C855.637 331.377 825.073 364.789 794.446 398.09C787.05 406.132 777.906 410.794 770.127 410.037C753.171 409.439 740.015 406.519 726.974 402.923C718.772 400.661 710.614 398.258 702.846 394.628C698.927 392.798 697.598 390.094 699.802 386.003C701.986 381.948 704.049 377.817 706.364 373.844C712.554 363.222 712.596 363.249 724.176 366.265L724.175 366.266ZM606.129 443.994C607.904 457.998 610.227 471.945 609.645 486.123C606.593 472.243 605.524 458.185 606.129 443.994ZM602.884 375.886C601.024 378.945 599.175 378.405 596.651 377.194C587.601 372.858 578.481 368.677 569.402 364.405C540.805 350.946 511.713 338.596 483.708 323.813C474.677 319.046 465.684 314.098 458.115 306.961C455.234 304.245 450.925 301.309 452.315 296.963C453.828 292.232 459.088 292.834 463.172 292.612C474.07 292.019 484.753 293.826 495.264 296.484C542.742 308.496 586.73 329.807 630.606 351.31C639.335 355.587 646.865 362.028 653.264 369.647C655.672 372.514 657.872 375.565 658.017 380.89C658.119 383.398 655.837 384.261 652.807 384.253C647.018 384.237 641.769 381.985 636.428 380.085C628.735 377.347 621.246 373.916 613.153 372.511C609.205 371.825 605.236 372.015 602.883 375.885L602.884 375.886ZM646.284 404.451C642.827 404.88 639.364 405.262 635.914 405.749C627.029 407.003 617.939 407.645 610.637 414.032C608.739 415.692 607.908 414.651 607.699 412.764C606.868 405.259 606.136 397.743 605.411 390.227C605.14 387.422 606.487 386.892 608.745 387.915C621.18 393.553 633.745 398.864 646.284 404.451Z" fill="#F6EDE6"/>
</svg>
