<svg width="429" height="206" viewBox="0 0 429 206" fill="none" xmlns="http://www.w3.org/2000/svg">
<path opacity="0.2" d="M84.9999 130.318C93.6007 131.015 102.202 131.708 110.802 132.41C122.621 133.375 134.44 134.344 146.258 135.316C157.148 136.211 168.041 137.07 178.925 138.022C191.327 139.108 203.722 140.27 216.119 141.415C221.937 141.952 227.753 142.517 233.567 143.097C234.489 143.189 235.425 143.337 236.304 143.619C238.607 144.357 239.38 145.734 238.38 147.898C235.429 154.288 232.36 160.625 229.278 166.954C228.121 169.328 225.95 170.026 223.51 169.832C217.094 169.321 210.682 168.753 204.274 168.147C194.748 167.247 185.225 166.313 175.704 165.348C174.277 165.203 173.494 165.819 172.903 167C172.167 168.473 171.018 169.464 169.285 169.314C167.598 169.169 166.667 170.023 165.781 171.31C162.989 175.361 160.071 179.324 157.264 183.364C154.519 187.314 150.999 189.251 146.016 188.716C134.481 187.476 122.919 186.486 111.372 185.351C102.439 184.473 93.5111 183.537 84.5827 182.607C83.0674 182.449 81.5439 182.278 80.0566 181.963C77.519 181.425 76.8431 179.851 78.2067 177.678C78.742 176.826 79.4454 176.064 80.1493 175.335C84.6927 170.63 89.722 166.453 94.5349 162.041C97.5991 159.232 101.142 159.745 104.635 160.064C122.262 161.671 139.88 163.379 157.498 165.071C159.857 165.298 162.206 165.64 164.561 165.915C165.368 166.009 166.278 165.918 166.365 164.982C166.466 163.884 165.387 164.282 164.836 164.228C154.385 163.198 143.932 162.2 133.477 161.217C123.19 160.249 112.9 159.299 102.611 158.353C92.5749 157.43 82.5372 156.529 72.5009 155.605C66.7657 155.077 61.0319 154.525 55.2992 153.968C54.797 153.919 54.3075 153.749 53.8104 153.64C52.7845 153.415 51.7908 153.086 51.4618 151.958C51.0955 150.705 51.8142 149.825 52.7249 149.13C55.6231 146.916 58.5366 144.722 61.4649 142.548C66.3684 138.909 71.2245 135.2 76.2268 131.701C78.9187 129.819 80.3673 127.566 79.9614 124.23C79.8595 123.393 79.8376 122.518 79.967 121.689C80.3816 119.026 79.1739 118.069 76.6206 117.937C72.4261 117.721 71.1598 116.497 70.9276 112.119C70.6046 106.022 70.4763 99.9117 70.3983 93.8054C70.1447 73.8669 70.052 53.926 69.6878 33.9901C69.533 25.5073 69.1764 17.0342 69.7831 8.55908C69.8554 7.54824 69.9674 6.53077 70.1758 5.54033C71.0676 1.29511 72.4306 0.0798648 76.7667 0.0395944C97.9643 -0.15615 119.152 0.411203 140.341 0.922485C153.138 1.23139 165.94 1.33946 178.738 1.58822C195.943 1.92262 213.152 2.15201 230.348 2.73771C237.946 2.99666 245.619 2.76626 253.116 4.51267C260.474 6.22645 262.473 8.60495 262.382 16.1508C262.197 31.4184 261.229 46.6559 260.473 61.9015C260.087 69.6936 259.728 77.4877 259.435 85.2839C258.852 100.794 258.274 116.304 257.797 131.818C257.564 139.358 257.691 139.394 265.142 140.144C268.091 140.442 271.043 140.703 273.994 140.982C274.859 141.064 275.688 141.051 276.353 140.357C280.472 136.064 285.892 134.573 291.458 133.763C305.783 131.678 320.009 131.991 333.945 136.419C337.771 137.634 341.301 139.453 344.484 141.932C349.077 145.508 354.669 145.944 360.103 146.638C381.369 149.352 402.753 150.794 424.124 152.377C425.221 152.458 426.309 152.66 427.406 152.758C428.356 152.842 429.091 153.103 428.991 154.259C428.896 155.35 428.172 155.67 427.216 155.613C423.665 155.399 420.11 155.215 416.564 154.932C406.94 154.163 397.312 153.423 387.699 152.535C375.308 151.391 362.86 150.683 350.655 148.007C347.628 147.344 344.946 146.024 342.457 144.133C336.104 139.304 328.629 137.378 320.9 136.506C310.172 135.296 299.423 135.003 288.772 137.334C285.712 138.003 282.791 139.054 279.718 141.286C282.767 141.571 285.237 141.835 287.711 142.026C303.671 143.257 319.635 144.443 335.591 145.723C338.112 145.925 340.626 146.416 343.1 146.969C347.12 147.867 349.603 150.441 350.582 154.436C350.944 155.916 351.258 157.413 351.496 158.919C352.006 162.145 353.56 164.545 356.502 166.135C360.122 168.092 363.253 170.666 365.518 174.186C369.285 180.04 368.44 186.825 363.225 191.442C358.201 195.89 352.032 198.081 345.72 199.846C334.702 202.928 323.45 202.921 312.157 202.105C302.153 201.382 292.318 199.679 282.7 196.821C275.001 194.534 267.794 191.198 261.363 186.324C258.701 184.306 256.409 181.933 255.027 178.821C252.949 174.141 253.881 169.198 257.701 165.822C261.709 162.28 266.384 159.914 271.636 158.816C275.088 158.095 277.12 159.193 278.465 162.51C279.997 166.286 281.751 169.956 283.414 173.67C288.362 184.724 297.307 189.83 308.821 191.454C315.941 192.458 322.78 192.333 329.291 188.619C332.663 186.695 336.704 187.044 340.45 186.426C343.762 185.879 346.894 184.98 349.645 182.992C354.216 179.69 355.027 174.675 351.713 170.094C350.661 168.641 349.415 167.349 347.932 166.352C347.185 165.851 346.175 164.535 345.397 165.666C344.606 166.814 343.14 168.256 344.74 169.951C347.13 172.48 348.422 175.402 347.958 178.966C347.5 182.489 345.207 184.794 341.651 185.227C339.509 185.488 337.41 185.188 335.385 184.523C332.874 183.7 332.214 182.085 333.575 179.795C335.047 177.319 336.69 174.94 338.332 172.569C339.34 171.113 339.705 170.085 337.435 169.565C335.568 169.138 334.118 168.007 334.193 165.882C334.266 163.822 335.503 162.389 337.397 161.689C338.491 161.284 339.759 160.856 340.849 161.036C343.329 161.445 344.221 160.306 344.491 158.123C344.646 156.865 344.925 155.622 345.097 154.365C345.383 152.276 344.413 152.037 342.73 152.754C338.448 154.576 334.317 156.785 329.681 157.695C320.99 159.399 312.277 158.595 303.584 157.872C296.734 157.303 289.903 156.362 283.601 153.368C279.765 151.546 275.915 149.595 274.746 144.902C274.467 143.781 273.499 143.953 272.676 143.877C269.135 143.547 265.586 143.285 262.054 142.871C256.698 142.242 254.536 140.124 254.643 134.752C254.859 123.815 255.382 112.885 255.808 101.953C256.006 96.8695 256.29 91.7893 256.506 86.7071C257.242 69.3373 257.907 51.9639 258.721 34.5977C259.051 27.5682 259.335 20.5464 259.228 13.5067C259.188 10.8132 257.85 9.26661 255.515 8.32357C252.241 7.00128 248.766 6.647 245.309 6.44616C231.852 5.66318 218.374 5.51076 204.899 5.27831C187.184 4.97297 169.469 4.66304 151.759 4.18642C132.353 3.66393 112.944 3.3698 93.5325 3.12716C87.9419 3.05733 82.3645 2.7112 76.7652 3.12053C74.3901 3.29436 73.3225 4.13086 73.0113 6.55218C72.2605 12.396 72.5794 18.2505 72.6135 24.0943C72.7261 43.186 72.7347 62.2839 73.2772 81.3649C73.5665 91.5375 73.1004 101.731 74.0234 111.884C74.2831 114.74 76.3027 115.974 78.9513 115.025C80.3123 114.537 79.9395 113.369 79.9303 112.433C79.8503 104.289 79.6527 96.1472 79.6186 88.0039C79.5177 63.7315 79.4704 39.4592 79.4148 15.1864C79.4062 11.3163 79.8992 10.7128 83.8243 10.829C96.2763 11.1965 108.725 11.6828 121.175 12.1248C126.935 12.3292 132.696 12.4077 138.458 12.6493C151.921 13.2131 165.399 13.4476 178.869 13.8707C194.116 14.3493 209.362 14.8729 224.608 15.4066C232.145 15.6706 239.679 16.0081 247.215 16.2991C250.272 16.4169 251.135 17.1565 251.088 20.3287C250.994 26.6884 250.776 33.0476 250.54 39.4042C250.314 45.5049 249.941 51.6005 249.738 57.7022C249.316 70.3339 248.982 82.9686 248.578 95.6007C248.275 105.094 247.93 114.586 247.581 124.078C247.446 127.76 246.444 128.946 242.789 129.367C238.299 129.884 233.817 129.17 229.345 128.902C218.355 128.244 207.378 127.366 196.397 126.566C183.218 125.606 170.041 124.627 156.862 123.671C149.005 123.101 141.144 122.568 133.287 122.004C119.685 121.028 106.084 120.039 92.4822 119.059C89.8626 118.87 87.241 118.718 84.6224 118.515C83.4545 118.424 82.8402 118.868 82.8611 120.076C82.8626 120.161 82.8596 120.246 82.8524 120.331C82.3456 126.369 82.5254 126.408 88.5235 126.813C101.621 127.7 114.707 128.764 127.797 129.748C137.427 130.472 147.058 131.165 156.686 131.908C169.015 132.859 181.341 133.852 193.669 134.817C203.042 135.55 212.42 136.229 221.789 137.006C231.748 137.831 241.707 138.675 251.653 139.648C256.133 140.086 257.748 142.729 256.041 147.259C253.952 152.809 251.501 158.229 249.058 163.638C243.785 175.31 238.428 186.944 233.084 198.584C230.228 204.809 227.463 206.515 220.667 205.874C204.226 204.324 187.796 202.665 171.36 201.056C156.947 199.645 142.53 198.278 128.121 196.825C112.197 195.219 96.2794 193.534 80.3582 191.892C66.6271 190.476 52.8839 189.17 39.1666 187.633C28.6511 186.455 18.0846 185.635 7.66842 183.669C4.31181 183.036 3.54779 182.061 2.8841 178.664C2.01006 174.188 2.97222 170.941 7.1499 168.123C25.6388 155.648 43.8959 142.83 62.2207 130.113C62.945 129.61 64.3508 129.241 64.0666 128.294C63.7284 127.168 62.3022 127.691 61.3477 127.615C48.8519 126.615 36.3545 125.64 23.856 124.671C16.6783 124.114 9.49851 123.582 2.32076 123.027C1.26488 122.946 -0.0538231 123.19 0.00169598 121.453C0.0587431 119.682 1.3204 120.043 2.39717 120.125C15.572 121.13 28.7463 122.147 41.9216 123.146C49.3541 123.71 56.7906 124.218 64.2199 124.813C66.0052 124.956 68.3416 124.557 68.9727 126.829C69.5569 128.932 67.5246 129.947 66.1274 130.923C50.0687 142.145 33.9692 153.308 17.8814 164.488C14.3995 166.908 10.9991 169.458 7.41527 171.715C4.2731 173.695 5.97178 176.424 6.04869 178.846C6.10981 180.769 7.97607 180.739 9.34469 180.963C18.543 182.466 27.8203 183.341 37.0798 184.35C49.2028 185.67 61.3289 186.966 73.458 188.234C84.0703 189.343 94.6887 190.396 105.304 191.477C116.426 192.61 127.545 193.762 138.668 194.876C149.54 195.965 160.415 197.014 171.289 198.086C182.834 199.224 194.372 200.448 205.926 201.477C211.407 201.966 216.87 202.646 222.387 202.822C226.131 202.943 228.448 201.511 229.964 198.156C234.331 188.494 238.838 178.896 243.23 169.246C246.252 162.608 249.178 155.925 252.136 149.257C252.479 148.483 252.782 147.688 253.047 146.883C254.08 143.751 253.61 142.834 250.331 142.513C242.155 141.71 233.969 141.019 225.781 140.343C213.626 139.339 201.468 138.372 189.308 137.418C179.767 136.669 170.221 135.972 160.678 135.238C148.264 134.283 135.851 133.306 123.436 132.352C113.725 131.606 104.016 130.806 94.296 130.189C91.2098 129.994 88.1206 129.249 84.9994 130.319L84.9999 130.318ZM82.5937 86.0821C82.6686 86.0821 82.7434 86.0821 82.8183 86.0821C82.8183 95.0787 82.856 104.075 82.7872 113.071C82.773 114.915 83.3445 115.606 85.2454 115.647C88.8847 115.726 92.5194 116.044 96.1536 116.302C107.137 117.082 118.119 117.889 129.103 118.67C139.496 119.409 149.892 120.115 160.285 120.862C173.549 121.815 186.811 122.793 200.074 123.763C208.606 124.387 217.134 125.082 225.671 125.622C231.08 125.964 236.481 126.523 241.919 126.352C243.596 126.299 244.401 125.704 244.429 123.957C244.462 121.924 244.728 119.896 244.791 117.862C245.203 104.635 245.576 91.4075 245.987 78.1805C246.146 73.0942 246.393 68.0109 246.565 62.9251C247.028 49.1934 247.458 35.4602 247.944 21.729C248.008 19.9097 247.405 19.1859 245.493 19.1283C230.839 18.6843 216.188 18.1128 201.534 17.648C182.727 17.051 163.917 16.5398 145.11 15.9484C125.288 15.325 105.469 14.6404 85.6472 14.0083C82.2993 13.9018 82.2529 13.9635 82.2947 17.3706C82.4389 29.1632 82.2061 40.9548 82.529 52.7515C82.8331 63.8539 82.5942 74.9711 82.5942 86.0821H82.5937ZM169.541 166.401C172.597 162.255 172.607 162.133 177.109 162.51C185.039 163.175 192.953 164.034 200.878 164.757C208.298 165.433 215.725 166.021 223.146 166.683C225.167 166.864 226.466 166.171 227.351 164.241C229.754 159 232.249 153.798 234.846 148.651C235.794 146.771 235.074 146.203 233.378 146.036C229.418 145.646 225.455 145.271 221.493 144.909C211.46 143.991 201.427 143.067 191.391 142.176C180.428 141.204 169.464 140.242 158.497 139.321C149.3 138.548 140.096 137.845 130.896 137.103C118.997 136.142 107.097 135.193 95.2016 134.198C90.9888 133.845 86.6802 133.971 82.6227 132.74C81.0086 132.25 80.0775 132.354 78.8327 133.319C75.147 136.174 71.3697 138.912 67.6265 141.693C63.7045 144.607 59.7799 147.519 55.5549 150.656C56.3867 150.922 56.7666 151.121 57.1614 151.158C66.6877 152.048 76.2146 152.925 85.743 153.796C95.7762 154.713 105.81 155.614 115.843 156.534C126.213 157.485 136.583 158.427 146.949 159.416C153.522 160.043 160.097 160.663 166.651 161.455C169.783 161.833 170.448 163.018 169.541 166.401ZM81.195 179.264C91.1966 180.293 100.95 181.344 110.714 182.289C122.759 183.454 134.818 184.467 146.857 185.692C149.881 186 152.175 185.204 153.93 182.77C156.755 178.851 159.51 174.879 162.43 171.033C163.823 169.197 163.262 168.708 161.277 168.523C154.958 167.935 148.648 167.252 142.329 166.655C128.513 165.349 114.693 164.078 100.877 162.777C99.2576 162.625 97.9129 163.067 96.6971 164.175C92.1868 168.283 87.625 172.334 83.1163 176.443C82.3859 177.109 81.6198 177.812 81.1955 179.265L81.195 179.264ZM354.362 168.447C354.694 169.12 354.867 169.472 355.04 169.824C358.257 176.348 356.746 181.842 350.7 185.894C347.063 188.331 342.959 189.248 338.721 189.713C334.746 190.149 330.861 190.739 327.297 192.793C325.004 194.114 322.392 194.574 319.753 194.856C312.342 195.647 305.268 194.125 298.302 191.831C292.541 189.934 288.015 186.39 284.621 181.384C281.083 176.165 278.405 170.508 276.109 164.65C274.907 161.582 274.043 161.167 270.847 162.065C266.971 163.155 263.38 164.869 260.312 167.5C256.396 170.858 255.922 175.265 258.799 179.533C260.752 182.43 263.52 184.378 266.381 186.199C275.316 191.891 285.224 194.968 295.549 196.85C310.289 199.535 325.092 200.921 339.966 198.074C347.407 196.649 354.632 194.473 360.739 189.684C365.246 186.148 366.085 180.365 362.881 175.62C360.798 172.536 358.011 170.288 354.361 168.446L354.362 168.447ZM341.309 149.465C338.373 149.135 335.442 148.739 332.499 148.488C324.657 147.82 316.81 147.197 308.963 146.587C299.427 145.845 289.89 145.124 280.35 144.438C279.577 144.382 278.442 143.943 278.082 144.945C277.776 145.799 278.645 146.481 279.256 147.051C282.518 150.094 286.544 151.645 290.759 152.724C300.696 155.267 310.852 155.411 321.03 155.513C328.383 155.587 334.998 153.36 341.309 149.465ZM339.413 182.285C342.237 182.405 343.938 181.732 344.762 179.586C345.539 177.562 344.659 173.966 343.201 172.715C342.269 171.916 341.892 172.526 341.443 173.205C340.09 175.254 338.718 177.292 337.372 179.345C336.011 181.421 336.198 181.861 338.579 182.224C339.08 182.3 339.591 182.296 339.413 182.285Z" fill="#F6EDE6"/>
</svg>
