<svg xmlns="http://www.w3.org/2000/svg" width="669" height="330" viewBox="0 0 669 330" fill="none">
<path opacity="0.2" d="M0.00143355 327.021C1.54393 326.931 3.08571 326.763 4.62821 326.764C25.6311 326.776 46.6441 326.42 67.6313 327.006C78.2983 327.303 84.8518 323.315 88.961 313.552C98.1981 291.607 107.692 269.764 117.476 248.057C122.757 236.344 128.67 224.902 134.655 213.527C137.765 207.616 141.13 202.224 142.928 195.371C146.939 180.076 155.164 166.731 168.112 156.861C168.885 156.272 169.362 155.258 169.886 154.388C170.62 153.17 171.047 151.694 171.988 150.687C184.668 137.12 191.598 120.466 197.927 103.392C202.764 90.3442 207.795 77.3369 213.478 64.6421C220.209 49.6066 231.122 37.8348 244.616 28.4839C247.937 26.1819 251.413 23.7683 255.753 26.6764C256.198 26.9746 257.448 26.3353 258.182 25.8939C261.65 23.8062 264.991 21.4972 268.525 19.5335C272.032 17.5849 275.797 16.535 280.275 18.2471C280.65 14.2525 281.065 10.5237 281.337 6.78492C281.728 1.37918 282.835 -0.0247545 288.282 0.000328486C296.031 0.036878 303.784 0.401656 311.526 0.816601C331.061 1.86364 350.589 3.02534 370.121 4.12612C400.848 5.85828 431.578 7.55676 462.303 9.33837C465.263 9.51036 468.216 10.0643 471.136 10.6298C474.441 11.2698 475.943 13.4075 475.794 16.788C475.399 25.7254 475.061 34.6657 474.673 43.6039C474.516 47.2158 473.155 49.8725 469.482 50.076C476.022 54.4025 482.472 59.399 489.594 63.1012C493.748 65.2605 498.978 65.3558 503.726 66.3642C504.307 66.4874 504.907 66.5312 505.502 66.5813C517.749 67.6248 524.507 74.4853 527.096 86.2915C529.415 96.8687 532.009 107.399 534.921 117.827C536.414 123.176 538.267 128.599 541.008 133.388C547.037 143.924 553.734 154.077 560.23 164.5C563.113 163.913 565.858 163.186 568.65 162.823C573.301 162.219 576.153 163.444 577.877 167.811C582.284 178.98 586.392 190.272 590.343 201.612C591.187 204.036 592.175 207.488 589.285 209.147C586.096 210.975 583.792 208.072 582.181 205.895C578.148 200.448 574.345 194.811 570.765 189.053C566.685 182.488 562.947 175.711 558.942 168.822C553.964 170.57 549.216 172.422 544.353 173.9C536.958 176.147 529.484 178.133 522.045 180.235C516.362 181.841 514.808 183.76 514.758 189.62C514.658 201.215 518.103 212.18 520.885 223.257C521.461 225.552 522.214 227.802 522.79 229.752C530.894 228.392 538.951 227.801 546.534 225.586C557.243 222.457 567.637 218.222 578.099 214.282C586.929 210.958 590.698 211.775 596.214 219.463C608.499 236.585 616.615 255.735 622.916 275.704C626.819 288.072 630.24 300.595 634.284 312.915C637.939 324.051 641.022 326.174 652.843 326.326C672.765 326.583 692.691 326.619 712.615 326.758C714.447 326.771 716.802 326.264 715.732 329.771C714.872 329.848 713.954 330.001 713.036 330C694.539 329.986 676.042 329.99 657.547 329.893C653.98 329.874 650.412 329.486 646.851 329.191C640.166 328.637 635.254 325.35 633.028 319.007C629.919 310.147 627.034 301.196 624.419 292.178C618.067 270.274 610.69 248.807 598.652 229.247C596.719 226.106 594.658 223.012 592.349 220.142C588.488 215.343 586.236 214.837 580.521 217.01C571.845 220.309 563.34 224.163 554.475 226.829C546.771 229.146 538.67 230.142 530.743 231.716C530.394 231.786 530.028 231.767 529.675 231.822C523.974 232.695 523.767 233.082 525.33 238.504C531.726 260.685 538.212 282.84 544.362 305.089C545.678 309.849 545.88 314.946 546.299 319.912C546.51 322.413 546.154 325.218 543.301 326.202C540.257 327.254 537.984 325.198 536.878 322.863C533.887 316.551 530.631 310.22 528.79 303.536C523.501 284.333 520.061 264.73 518.39 244.869C518.09 241.302 519.199 237.626 519.555 233.99C519.665 232.859 519.588 231.66 519.338 230.551C516.811 219.294 514.23 208.051 511.667 196.802C511.588 196.454 511.516 196.1 511.485 195.745C510.142 180.207 514.055 178.815 525.062 175.945C535.742 173.161 546.224 169.617 557.103 166.312C548.553 150.316 536.289 137.179 531.704 119.544C531.215 120.071 530.805 120.417 530.513 120.843C527.72 124.917 525.035 125.827 520.424 123.825C508.63 118.703 496.887 113.463 485.122 108.274C482.835 107.265 480.542 106.271 478.274 105.279C471.277 111.557 466.136 111.387 459.321 104.649C458.305 103.645 457.085 102.662 456.523 101.416C452.205 91.8449 442.763 89.705 433.744 85.4459C433.744 87.7206 433.36 89.5982 433.813 91.2465C435.447 97.2005 437.272 103.108 439.235 108.962C439.741 110.472 440.811 111.939 441.974 113.059C449.708 120.507 457.534 127.86 465.345 135.228C465.924 135.774 466.615 136.199 467.247 136.675C467.536 136.376 467.779 136.235 467.854 136.032C473.311 121.4 485.737 119.271 499.048 124.173C513.922 129.652 520.251 141.597 521.82 156.396C522.359 161.473 521.484 166.801 520.543 171.883C520.163 173.933 518.177 176.025 516.385 177.399C513.422 179.67 509.769 178.942 507.18 174.979C497.865 160.733 481.971 154.585 469.189 142.938C468.638 149.662 467.992 155.404 467.725 161.165C466.397 189.76 465.192 218.361 463.885 246.957C463.662 251.836 463.374 256.731 462.729 261.567C461.677 269.453 458.506 272.321 450.428 272.53C443.276 272.715 436.106 272.645 428.957 272.358C395.58 271.02 362.204 269.649 328.836 268.12C314.306 267.454 299.792 266.397 285.275 265.466C283.622 265.36 281.964 265.02 280.356 264.607C274.308 263.051 271.314 259.634 271.46 253.343C271.734 241.543 272.038 229.721 273.02 217.966C274.259 203.13 276.091 188.341 277.893 173.558C278.336 169.931 279.525 166.371 280.604 162.851C282.722 155.944 287.527 152.365 294.691 151.56C306.95 150.183 318.83 147.487 329.916 141.713C341.72 135.566 351.166 126.774 358.991 116.233C368.44 103.503 377.38 90.3951 386.815 77.6537C395.133 66.4208 404.896 56.728 418.002 51.0148C429.466 46.0183 441.53 45.3805 453.775 46.0054C458.183 46.2304 462.595 46.4024 466.999 46.697C469.993 46.8976 471.227 45.7875 471.304 42.6256C471.497 34.6392 471.861 26.6478 472.495 18.685C472.782 15.0774 471.354 13.662 468.042 13.4226C458.649 12.7446 449.264 11.9112 439.863 11.3708C406.519 9.45375 373.171 7.59259 339.82 5.79235C323.145 4.89223 306.457 4.21785 289.78 3.33278C286.29 3.14789 284.555 4.09101 284.527 7.96382C284.491 12.5891 283.861 17.2094 283.413 22.7649C285.251 21.3832 286.44 20.3491 287.761 19.5278C290.18 18.0235 292.544 16.2985 295.173 15.3031C298.407 14.0776 301.876 14.1522 304.498 16.8812C307.083 19.5729 308.136 23.0752 306.523 26.45C304.909 29.8276 302.651 32.9816 300.253 35.8848C291.681 46.2605 282.821 56.3998 274.323 66.8343C272.143 69.5117 270.892 72.946 269.214 76.0326C269.528 76.2942 269.841 76.5558 270.155 76.8173C271.167 75.9803 272.254 75.2199 273.176 74.2933C277.299 70.1488 281.364 65.9478 285.468 61.7847C292.695 54.4555 301.246 49.1229 310.743 45.2916C316.441 42.9926 320.459 43.5437 322.93 46.6568C325.352 49.7076 325.117 54.0886 321.287 58.754C316.988 63.9913 312.329 68.9936 307.388 73.6311C295.591 84.7041 286.18 97.48 278.987 111.92C277.883 114.136 276.868 116.488 276.371 118.892C275.639 122.443 277.505 124.056 280.865 122.673C284.144 121.325 287.205 119.415 290.284 117.619C294.602 115.1 298.757 112.29 303.148 109.911C308.609 106.953 314.49 106.401 320.489 108.023C323.579 108.859 326.309 110.381 327.226 113.761C328.233 117.468 326.155 120.041 323.459 121.982C301.753 137.613 280.93 154.619 255.371 164.13C248.731 166.601 242.339 170.103 236.398 173.995C229.366 178.601 222.13 178.249 214.744 176.387C199.549 172.558 185.143 166.657 171.138 158.768C157.084 169.484 149.161 184.161 144.347 201.568C156.949 199.7 167.176 205.087 177.798 208.6C186.605 211.512 195.315 214.719 204.097 217.705C205.514 218.187 207.089 218.199 208.742 218.451C211.293 209.379 213.67 200.561 216.282 191.814C217.333 188.296 218.817 184.896 220.269 181.515C221.15 179.465 222.985 177.97 225.092 179.025C226.514 179.738 227.846 181.658 228.179 183.255C228.597 185.258 228.356 187.618 227.693 189.586C224.894 197.906 222.078 206.238 218.723 214.341C217.667 216.892 215.075 218.928 212.884 220.856C210.675 222.8 208.956 230.777 210.704 233.105C214.188 237.745 214.063 243.062 212.969 248.199C208.881 267.406 204.501 286.55 200.185 305.707C199.165 310.235 198.03 314.738 196.833 319.221C196.345 321.049 195.849 323.003 194.798 324.51C193.981 325.683 192.277 326.913 191.007 326.872C190.06 326.842 188.386 324.814 188.398 323.691C188.461 317.892 188.277 311.957 189.433 306.327C194.221 283.009 199.374 259.763 204.633 236.545C205.373 233.279 204.896 231.293 201.924 230.005C191.126 225.323 180.362 220.559 169.49 216.055C161.692 212.825 153.768 209.89 145.826 207.031C144.902 206.698 142.987 207.319 142.411 208.126C139.856 211.704 137.197 215.311 135.344 219.266C124.945 241.471 114.712 263.753 104.547 286.065C100.796 294.297 97.4484 302.71 93.7892 310.984C92.2991 314.353 90.5344 317.608 88.7804 320.853C85.4825 326.956 80.3863 330.017 73.3676 329.994C48.912 329.917 24.4556 329.913 0 329.88C0.00143355 328.93 0.00143355 327.975 0.00143355 327.021ZM460.668 49.9427C448.37 48.7803 435.963 48.4958 423.84 52.4216C409.731 56.9903 399.428 66.6587 390.793 78.1539C380.774 91.4938 371.375 105.299 361.446 118.71C345.923 139.679 324.943 151.39 299.109 154.412C287.581 155.761 284.901 157.938 282.173 169.197C281.865 170.469 281.612 171.757 281.393 173.048C277.235 197.552 275.856 222.305 274.892 247.086C274.397 259.798 276.211 261.806 289.024 262.53C309.026 263.662 329.041 264.581 349.054 265.517C368.117 266.408 387.181 267.305 406.251 268.011C420.666 268.544 435.091 268.99 449.513 269.064C457.228 269.104 459.275 266.856 459.665 259.265C460.951 234.255 462.056 209.236 463.391 184.23C464.128 170.431 465.23 156.652 466.032 142.856C466.101 141.663 465.489 140.07 464.633 139.243C457.689 132.527 450.763 125.778 443.521 119.391C438.679 115.12 435.111 110.441 434.435 103.804C434.236 101.846 433.252 99.9482 432.511 98.0684C430.728 93.5434 428.706 89.0693 430.588 84.8532C426.787 81.7795 423.304 79.14 420.074 76.2211C419.301 75.5223 418.915 73.7629 419.211 72.7403C419.405 72.0702 421.279 71.3005 422.171 71.5169C426.681 72.6127 429.706 70.5423 432.639 67.5173C434.186 65.922 436.242 64.7811 438.169 63.5993C445.641 59.0149 453.153 54.4963 460.669 49.942L460.668 49.9427ZM174.791 156.508C175.398 157.058 175.608 157.342 175.89 157.491C189.524 164.689 203.671 170.564 218.813 173.75C223.795 174.799 228.535 174.545 233.294 171.854C241.254 167.353 249.588 163.513 257.736 159.34C266.297 154.955 274.948 150.727 283.322 146.009C289.327 142.626 295.073 138.738 300.694 134.738C307.871 129.631 314.903 124.307 321.805 118.833C325.337 116.031 324.617 112.983 320.261 111.562C315.18 109.905 310.062 110.234 305.316 112.652C301.294 114.701 297.545 117.278 293.615 119.517C289.694 121.751 285.859 124.254 281.698 125.918C276.184 128.124 272.094 124.684 272.877 118.798C273.153 116.717 273.902 114.621 274.821 112.718C280.39 101.186 286.949 90.2525 295.722 80.8478C302.065 74.0482 308.832 67.647 315.229 60.8954C317.248 58.764 318.986 56.2221 320.246 53.5797C320.878 52.2546 320.7 49.8847 319.866 48.7215C319.165 47.7462 316.87 47.2889 315.478 47.572C312.833 48.1102 310.255 49.178 307.783 50.3154C298.212 54.7178 290.256 61.2702 283.107 68.9312C279.779 72.498 276.286 75.943 272.576 79.102C271.464 80.0495 268.672 80.6493 267.893 79.9742C266.782 79.0117 266.198 76.6059 266.505 75.0343C266.971 72.6536 268.052 70.2112 269.478 68.2318C274.486 61.2817 279.551 54.353 284.979 47.7311C290.339 41.1916 296.315 35.1581 301.723 28.6544C304.407 25.4266 304.379 21.5566 302.201 19.4977C299.386 16.8346 296.467 18.1876 293.662 19.7027C292.721 20.2108 291.84 20.8307 290.944 21.4191C285.908 24.7286 282.439 29.3897 278.698 34.0716C270.573 44.2388 262.37 54.2656 256.083 65.7278C255.251 67.2464 253.955 68.6639 252.549 69.6802C250.248 71.3421 247.765 70.1589 247.866 67.3324C247.952 64.9079 248.608 62.3817 249.557 60.13C253.669 50.372 260.138 42.3698 268.351 35.7336C269.633 34.698 270.831 33.5585 272.068 32.467C271.873 32.2449 271.678 32.0227 271.483 31.8013C270.032 32.7673 268.543 33.6825 267.134 34.7073C257.222 41.9176 250.369 51.7064 245.128 62.4799C237.789 77.5648 231.279 93.051 224.195 108.263C218.995 119.428 213.309 130.479 203.443 138.287C197.037 143.357 189.799 147.381 182.886 151.8C180.32 153.441 177.621 154.872 174.793 156.508H174.791ZM176.689 151.5C181.722 148.602 186.788 145.755 191.785 142.794C200.889 137.399 208.2 130.157 213.503 120.998C216.302 116.163 219.038 111.261 221.366 106.19C227.667 92.4577 233.278 78.3904 240.009 64.8785C248.498 47.84 258.498 31.8815 278.119 25.3728C278.828 25.1378 279.685 24.0248 279.678 23.3282C279.672 22.6237 278.782 21.4814 278.094 21.3216C276.668 20.9898 274.84 20.6436 273.671 21.2514C268.628 23.8729 263.753 26.8205 258.85 29.7058C258.413 29.963 257.936 30.6324 257.949 31.0975C258.057 34.9194 255.507 37.222 253.075 39.4616C246.282 45.7151 241.347 53.1777 237.88 61.6966C236.761 64.4435 235.468 67.1475 233.966 69.7017C232.841 71.6158 231.189 74.1399 228.737 72.559C227.602 71.8265 227.152 68.6697 227.661 66.9984C229.32 61.5533 231.528 56.2722 233.59 50.9532C236.2 44.2231 240.436 38.7356 246.31 34.5088C248.553 32.8949 250.718 31.1735 252.919 29.5015C252.732 29.1511 252.544 28.8013 252.357 28.4509C250.632 29.2457 248.607 29.695 247.233 30.8925C240.61 36.6724 233.606 42.1569 227.774 48.6735C217.511 60.1386 212.337 74.5126 206.923 88.6544C198.605 110.378 192.571 133.23 176.688 151.501L176.689 151.5ZM497.06 68.54C500.26 71.9677 503.235 74.8752 505.823 78.0951C506.607 79.0712 506.947 81.3251 506.345 82.236C505.746 83.1411 503.57 83.665 502.321 83.3676C495.482 81.7408 489.353 78.6126 484.494 73.4276C480.999 69.6988 480.858 67.3646 483.508 63.0253C479.475 60.5206 475.411 58.0567 471.41 55.4961C467.173 52.785 462.924 52.6452 458.64 55.2682C450.929 59.9895 443.228 64.7281 435.561 69.5225C434.333 70.29 433.31 71.3851 431.865 72.6048C434.493 73.5207 436.599 74.0295 438.495 74.9641C442.081 76.7299 445.285 76.5185 448.901 74.6588C456.446 70.7788 463.847 71.5556 469.951 77.5505C473.024 80.5683 475.437 84.4096 477.538 88.215C479.075 90.9985 480.817 92.9113 483.829 93.9999C493.108 97.3546 502.331 100.866 511.551 104.38C517.477 106.638 523.36 109.009 529.597 111.461C529.178 109.494 528.911 107.869 528.481 106.288C526.108 97.5796 523.874 88.8285 521.228 80.2035C519.73 75.321 516.18 72.2766 510.979 71.3285C506.466 70.5057 501.982 69.5325 497.058 68.54H497.06ZM519.704 162.343C519.491 162.267 519.279 162.191 519.066 162.115C518.862 159.984 518.68 157.85 518.452 155.722C516.808 140.416 508.248 129.95 494.355 126.244C484.426 123.595 477.114 126.039 472.896 133.42C469.659 139.084 469.71 139.149 474.7 143.188C486.931 153.086 501.687 159.981 510.693 173.744C512.396 176.347 515.093 175.267 516.161 172.982C517.734 169.619 518.56 165.907 519.704 162.344V162.343ZM541.188 323.214C541.894 322.902 542.599 322.588 543.304 322.276C541.019 293.786 529.549 267.595 521.936 240.406C521.515 242.235 521.47 243.99 521.737 245.695C523.904 259.548 525.706 273.478 528.483 287.21C530.404 296.711 533.514 305.992 536.479 315.248C537.397 318.112 539.584 320.57 541.189 323.213L541.188 323.214ZM479.546 102.115C494.134 108.522 508.507 114.835 522.881 121.145C523.098 121.241 523.319 121.366 523.549 121.39C526.487 121.694 527.379 119.512 528.312 117.417C529.218 115.382 527.812 114.608 526.316 113.976C522.809 112.494 519.317 110.966 515.757 109.617C504.115 105.205 492.446 100.864 480.72 96.4709C480.323 98.3794 479.987 99.999 479.547 102.117L479.546 102.115ZM208.348 236.587C201.714 264.956 193.728 292.992 191.469 322.187C192.424 321.445 192.964 320.582 193.185 319.644C198.491 297.085 203.869 274.544 208.957 251.936C210.083 246.932 211.286 241.668 208.348 236.587L208.348 236.587ZM587.026 206.34C587.302 205.214 587.463 204.952 587.398 204.77C583.047 192.609 578.767 180.42 574.167 168.353C573.724 167.191 571.291 166.186 569.772 166.173C567.414 166.153 565.048 167.047 562.107 167.679C570.537 180.756 576.403 194.662 587.026 206.34ZM150.367 204.159C150.271 204.503 150.175 204.846 150.079 205.19C168.806 212.736 188.515 217.95 206.395 228.567C206.937 226.283 207.431 224.201 207.862 222.385C203.188 220.981 198.947 219.866 194.814 218.435C183.485 214.512 172.235 210.361 160.881 206.513C157.499 205.366 153.879 204.924 150.367 204.159ZM475.862 100.451C478.157 97.2514 476.33 95.5077 473.919 94.3718C464.353 89.8634 454.73 85.476 445.081 81.1452C444.21 80.7539 443.01 81.0929 441.796 81.0929C444.834 83.3583 447.512 85.2725 450.089 87.3135C451.289 88.2645 452.105 89.8705 453.419 90.4797C460.834 93.9161 468.348 97.1403 475.86 100.451L475.862 100.451ZM474.809 90.5284C470.046 78.7487 459.674 71.4173 448.952 78.7688C457.511 82.6617 465.975 86.5101 474.809 90.5284ZM224.292 182.602C218.507 192.866 216.366 204.284 213.744 215.549C219.821 205.379 224.338 194.714 224.292 182.602ZM484.502 67.3288C488.735 74.7046 495.331 77.5928 502.984 80.2071C498.42 73.2226 489.623 66.9432 484.502 67.3288ZM457.106 95.9306C463.014 105.95 470.333 109.069 474.416 103.591C468.893 101.147 463.454 98.7399 457.106 95.9306ZM231.607 66.5584C236.654 54.6476 242.627 43.2993 252.862 34.7259C239.421 41.1235 235.885 54.0685 231.607 66.5584ZM251.832 65.793L266.97 42.1756C259.366 48.3503 254.442 56.2772 251.832 65.793Z" fill="#F6EDE6"/>
</svg>